<?xml version="1.0" standalone="no"?>
<!DOCTYPE svg PUBLIC "-//W3C//DTD SVG 20010904//EN"
 "http://www.w3.org/TR/2001/REC-SVG-20010904/DTD/svg10.dtd">
<svg version="1.0" xmlns="http://www.w3.org/2000/svg"
 width="28.320000pt" height="61.440000pt" viewBox="0 0 28.320000 61.440000"
 preserveAspectRatio="xMidYMid meet">
<metadata>
Created by potrace 1.16, written by Peter Selinger 2001-2019
</metadata>
<g transform="translate(0.000000,61.440000) scale(0.006000,-0.006000)"
fill="#000000" stroke="none">
<path d="M0 5120 l0 -5120 2360 0 2360 0 0 5120 0 5120 -2360 0 -2360 0 0
-5120z m2700 969 c-38 -70 -89 -169 -354 -694 -97 -192 -169 -343 -196 -410
-4 -11 -15 -36 -23 -55 -8 -19 -33 -82 -55 -140 -22 -58 -62 -159 -87 -225
-26 -66 -80 -219 -121 -340 -65 -196 -98 -304 -164 -550 -11 -38 -36 -124 -56
-190 -20 -66 -38 -130 -41 -143 -3 -12 -9 -25 -14 -28 -5 -3 -9 -20 -9 -39 0
-19 -4 -37 -10 -40 -5 -3 -10 -19 -10 -35 0 -16 -4 -32 -10 -35 -6 -4 -10 6
-10 24 0 16 5 33 10 36 6 3 10 21 10 40 0 19 4 37 10 40 5 3 10 21 10 40 0 19
4 44 9 57 14 36 60 232 66 278 1 8 5 23 9 32 4 9 6 27 3 40 -3 20 -5 19 -12
-9 -5 -22 -13 -33 -26 -33 -10 0 -21 -9 -24 -20 -3 -11 -12 -20 -18 -20 -7 0
-20 -17 -29 -38 -9 -20 -26 -57 -37 -81 -12 -25 -21 -55 -21 -67 0 -13 -4 -26
-10 -29 -6 -4 -10 6 -10 24 0 16 5 33 10 36 6 3 10 17 10 31 0 14 4 33 9 42 4
9 11 37 14 62 3 25 3 38 0 30 -3 -8 -21 -30 -40 -47 -26 -26 -35 -29 -39 -18
-4 8 -3 22 0 31 3 8 11 56 16 106 12 102 34 174 91 296 21 46 39 86 39 88 0 2
14 34 31 71 17 38 43 93 56 123 95 209 282 569 391 755 259 441 661 1090 669
1081 2 -2 -15 -36 -37 -77z m-280 -773 c0 -8 -4 -18 -10 -21 -5 -3 -10 -15
-10 -26 0 -10 -4 -27 -9 -37 -8 -16 -16 -34 -40 -94 -5 -13 -19 -50 -31 -83
-12 -33 -26 -69 -31 -80 -4 -11 -17 -47 -28 -80 -11 -33 -31 -93 -46 -134 -40
-113 -158 -486 -209 -661 -75 -259 -114 -421 -182 -760 -36 -179 -74 -360 -85
-404 -10 -43 -19 -90 -19 -105 0 -39 -23 -131 -33 -131 -9 0 -7 28 13 135 6
33 15 89 20 125 5 36 14 90 20 120 5 30 14 84 19 120 5 36 14 88 21 115 11 48
23 109 40 205 7 41 21 100 51 215 6 22 15 58 21 80 6 22 14 51 18 65 4 14 12
43 18 65 29 110 35 131 43 147 5 10 9 27 9 37 0 11 5 23 10 26 6 3 10 17 10
31 0 13 4 32 9 42 5 9 14 37 21 62 7 25 16 53 21 62 5 10 9 27 9 37 0 11 5 23
10 26 6 3 10 17 10 30 0 13 5 27 10 30 6 3 10 17 10 30 0 13 5 37 11 52 6 15
15 37 20 48 4 11 13 38 20 60 7 22 17 44 21 49 4 6 8 19 8 31 0 12 4 25 8 31
4 5 14 27 21 49 16 53 24 71 50 123 11 24 21 50 21 58 0 8 5 23 10 34 6 11 15
29 20 40 6 11 10 27 10 35 0 8 4 23 9 33 5 9 19 40 31 67 12 28 26 58 31 67 5
10 9 25 9 33 0 8 5 15 10 15 6 0 10 -6 10 -14z m211 -69 c-6 -6 -11 -19 -11
-29 0 -10 -4 -26 -9 -36 -6 -9 -17 -44 -25 -77 -9 -33 -45 -161 -81 -285 -95
-326 -190 -699 -215 -850 -4 -25 -17 -88 -28 -140 -29 -132 -72 -378 -83 -480
-18 -162 -31 -233 -41 -215 -9 14 -6 62 9 165 2 14 7 64 13 112 5 49 14 112
20 140 5 29 12 62 14 73 2 11 11 63 20 115 9 52 21 118 27 145 24 118 30 152
35 190 3 22 9 49 14 60 5 11 11 34 15 50 3 17 10 49 16 73 17 77 30 137 36
165 3 15 9 30 14 33 5 3 9 16 9 29 0 13 4 34 9 47 5 13 14 43 21 68 14 54 46
164 70 240 10 30 23 75 30 100 7 25 16 54 20 65 5 11 14 38 21 60 13 45 27 82
40 107 5 10 9 27 9 37 0 11 5 23 10 26 6 3 10 16 10 29 0 31 14 43 18 16 2
-12 -1 -27 -7 -33z"/>
<path d="M1978 4691 c-14 -31 -35 -76 -47 -100 -12 -25 -21 -51 -21 -58 0 -7
-4 -13 -8 -13 -18 0 -110 -234 -117 -295 -2 -16 -8 -44 -13 -62 -6 -17 -8 -34
-5 -36 2 -3 0 -14 -5 -24 -5 -10 -6 -27 -1 -38 6 -16 8 -14 8 13 1 17 5 32 10
32 5 0 11 10 14 23 2 12 13 45 22 72 10 28 27 75 38 105 11 30 26 67 33 82 8
14 14 31 14 38 0 6 9 30 20 52 11 23 20 48 20 55 0 7 5 22 10 33 6 11 15 29
20 40 6 11 10 25 10 30 0 6 9 30 20 52 11 23 17 45 13 49 -5 3 -20 -19 -35
-50z"/>
</g>
</svg>
