<?xml version="1.0" standalone="no"?>
<!DOCTYPE svg PUBLIC "-//W3C//DTD SVG 20010904//EN"
 "http://www.w3.org/TR/2001/REC-SVG-20010904/DTD/svg10.dtd">
<svg version="1.0" xmlns="http://www.w3.org/2000/svg"
 width="236.000000pt" height="512.000000pt" viewBox="0 0 236.000000 512.000000"
 preserveAspectRatio="xMidYMid meet">
<metadata>
Created by potrace 1.16, written by Peter Selinger 2001-2019
</metadata>
<g transform="translate(0.000000,512.000000) scale(0.100000,-0.100000)"
fill="#000000" stroke="none">
<path d="M0 2560 l0 -2560 1180 0 1180 0 0 2560 0 2560 -1180 0 -1180 0 0
-2560z m1362 508 c-26 -44 -276 -544 -292 -585 -7 -18 -15 -31 -19 -29 -3 2
-7 -6 -7 -17 -1 -12 -33 -107 -71 -212 -39 -104 -97 -284 -129 -398 -32 -115
-60 -205 -61 -200 -2 5 13 71 32 147 19 77 33 141 31 144 -3 2 -8 -12 -11 -32
-4 -20 -10 -34 -14 -31 -12 7 -43 -36 -62 -85 -18 -44 -27 -43 -10 2 4 13 11
36 15 51 l7 29 -26 -27 c-14 -16 -25 -25 -25 -21 0 4 5 39 11 79 25 162 268
629 598 1150 43 67 70 96 33 35z m-73 -533 c-100 -319 -185 -695 -205 -903 -4
-41 -10 -69 -14 -63 -3 7 -3 37 1 69 4 31 10 75 13 97 15 116 57 318 101 489
35 137 144 480 150 474 2 -2 -19 -75 -46 -163z m-130 -10 c-67 -181 -144 -420
-188 -587 -27 -101 -98 -441 -117 -558 -4 -25 -9 -40 -11 -33 -9 26 61 395
112 590 58 220 247 764 261 751 2 -2 -24 -76 -57 -163z"/>
</g>
</svg>
