<?xml version="1.0" encoding="UTF-8" standalone="no"?>
<svg
   version="1.1"
   viewBox="0.00 0.00 522.00 843.00"
   id="svg180"
   sodipodi:docname="vectorizado.svg"
   inkscape:version="1.3.2 (091e20e, 2023-11-25, custom)"
   xmlns:inkscape="http://www.inkscape.org/namespaces/inkscape"
   xmlns:sodipodi="http://sodipodi.sourceforge.net/DTD/sodipodi-0.dtd"
   xmlns="http://www.w3.org/2000/svg"
   xmlns:svg="http://www.w3.org/2000/svg">
  <defs
     id="defs180" />
  <sodipodi:namedview
     id="namedview180"
     pagecolor="#ffffff"
     bordercolor="#000000"
     borderopacity="0.25"
     inkscape:showpageshadow="2"
     inkscape:pageopacity="0.0"
     inkscape:pagecheckerboard="0"
     inkscape:deskcolor="#d1d1d1"
     inkscape:zoom="0.93475682"
     inkscape:cx="260.49556"
     inkscape:cy="420.9651"
     inkscape:window-width="1920"
     inkscape:window-height="1001"
     inkscape:window-x="-9"
     inkscape:window-y="-9"
     inkscape:window-maximized="1"
     inkscape:current-layer="svg180" />
  <path
     fill="#000000"
     d="   M 522.00 0.00   L 522.00 310.65   Q 511.53 293.10 507.07 283.35   C 500.57 269.15 496.08 255.02 490.96 238.28   Q 484.69 217.77 483.19 200.95   Q 481.56 182.69 483.93 166.71   Q 486.65 148.49 492.56 123.79   Q 493.00 122.87 493.93 122.11   L 501.24 111.28   L 506.03 101.28   C 499.03 92.59 491.70 87.64 480.13 87.37   C 468.64 87.10 457.37 89.90 445.78 93.18   Q 425.10 99.04 390.47 111.05   Q 354.71 123.46 318.88 119.06   Q 285.26 114.93 256.73 104.50   Q 253.00 103.14 238.15 96.83   Q 215.21 87.08 196.31 80.33   Q 185.16 76.35 177.65 73.19   C 167.21 68.79 151.35 61.56 139.33 56.96   Q 134.91 55.26 114.46 48.07   C 89.40 39.26 64.22 35.16 39.85 41.35   Q 33.75 42.90 20.33 46.62   C 15.87 47.85 9.71 48.76 9.25 42.51   C 9.02 39.45 9.00 35.71 7.96 33.05   Q 5.72 27.33 0.00 23.94   L 0.00 0.00   L 522.00 0.00   Z"
     id="path1"
     style="stroke:none" />
  <path
     fill="#010309"
     d="   M 506.03 101.28   Q 488.90 95.12 469.90 100.03   Q 449.64 105.27 433.42 112.92   Q 408.11 124.85 383.97 139.03   Q 371.95 146.09 351.76 152.97   Q 340.09 151.76 334.03 150.31   Q 331.59 149.73 322.25 146.78   C 310.48 143.08 296.22 139.73 286.60 136.99   C 268.48 131.84 249.87 124.84 232.15 116.50   C 215.49 108.65 200.17 101.62 184.58 93.54   Q 171.68 86.85 166.64 84.54   Q 151.42 77.56 126.55 70.80   Q 120.61 69.19 106.44 66.09   Q 76.99 59.66 48.85 67.87   Q 25.84 74.59 9.01 91.49   Q 4.42 96.10 0.00 100.93   L 0.00 23.94   Q 5.72 27.33 7.96 33.05   C 9.00 35.71 9.02 39.45 9.25 42.51   C 9.71 48.76 15.87 47.85 20.33 46.62   Q 33.75 42.90 39.85 41.35   C 64.22 35.16 89.40 39.26 114.46 48.07   Q 134.91 55.26 139.33 56.96   C 151.35 61.56 167.21 68.79 177.65 73.19   Q 185.16 76.35 196.31 80.33   Q 215.21 87.08 238.15 96.83   Q 253.00 103.14 256.73 104.50   Q 285.26 114.93 318.88 119.06   Q 354.71 123.46 390.47 111.05   Q 425.10 99.04 445.78 93.18   C 457.37 89.90 468.64 87.10 480.13 87.37   C 491.70 87.64 499.03 92.59 506.03 101.28   Z"
     id="path2"
     style="stroke:none" />
  <path
     fill="#010814"
     d="   M 351.76 152.97   L 340.77 159.24   L 326.32 160.51   Q 314.37 158.59 302.45 156.62   Q 290.68 154.67 282.88 152.63   Q 264.80 147.89 248.23 141.08   Q 188.94 116.74 167.18 108.23   Q 144.39 99.32 120.36 95.14   Q 100.65 91.72 86.12 92.42   Q 69.39 93.23 51.94 101.12   Q 45.64 95.98 40.73 94.16   C 23.58 87.80 8.33 109.66 0.00 120.83   L 0.00 100.93   Q 4.42 96.10 9.01 91.49   Q 25.84 74.59 48.85 67.87   Q 76.99 59.66 106.44 66.09   Q 120.61 69.19 126.55 70.80   Q 151.42 77.56 166.64 84.54   Q 171.68 86.85 184.58 93.54   C 200.17 101.62 215.49 108.65 232.15 116.50   C 249.87 124.84 268.48 131.84 286.60 136.99   C 296.22 139.73 310.48 143.08 322.25 146.78   Q 331.59 149.73 334.03 150.31   Q 340.09 151.76 351.76 152.97   Z"
     id="path3"
     style="stroke:none" />
  <path
     fill="#0d0417"
     d="   M 51.94 101.12   L 40.11 115.81   Q 19.89 123.53 8.23 142.44   Q 3.97 149.34 0.00 156.59   L 0.00 120.83   C 8.33 109.66 23.58 87.80 40.73 94.16   Q 45.64 95.98 51.94 101.12   Z"
     id="path4"
     style="stroke:none" />
  <path
     fill="#010f1f"
     d="   M 326.32 160.51   Q 320.54 163.78 316.58 165.27   Q 302.55 170.55 288.52 175.96   Q 282.36 173.52 276.20 170.98   Q 253.93 161.79 231.62 152.72   Q 216.07 146.40 177.83 132.79   Q 155.99 125.02 133.19 121.04   Q 109.44 116.89 84.89 118.84   C 66.90 120.26 52.41 127.16 40.08 140.54   L 34.29 136.22   Q 36.21 125.70 40.11 115.81   L 51.94 101.12   Q 69.39 93.23 86.12 92.42   Q 100.65 91.72 120.36 95.14   Q 144.39 99.32 167.18 108.23   Q 188.94 116.74 248.23 141.08   Q 264.80 147.89 282.88 152.63   Q 290.68 154.67 302.45 156.62   Q 314.37 158.59 326.32 160.51   Z"
     id="path5"
     style="stroke:none" />
  <path
     fill="#0f0411"
     d="   M 506.03 101.28   L 501.24 111.28   Q 482.01 108.78 462.80 115.49   Q 437.36 124.39 415.35 136.40   Q 396.39 146.74 377.53 157.13   L 340.77 159.24   L 351.76 152.97   Q 371.95 146.09 383.97 139.03   Q 408.11 124.85 433.42 112.92   Q 449.64 105.27 469.90 100.03   Q 488.90 95.12 506.03 101.28   Z"
     id="path6"
     style="stroke:none" />
  <path
     fill="#170719"
     d="   M 501.24 111.28   L 493.93 122.11   Q 477.56 122.18 463.86 127.02   Q 448.51 132.44 430.56 141.58   Q 414.24 149.88 398.04 158.42   Q 373.77 171.23 347.24 177.81   C 345.22 175.08 344.54 171.66 347.13 169.66   Q 350.58 166.99 355.85 165.06   Q 366.67 161.12 377.53 157.13   Q 396.39 146.74 415.35 136.40   Q 437.36 124.39 462.80 115.49   Q 482.01 108.78 501.24 111.28   Z"
     id="path7"
     style="stroke:none" />
  <path
     fill="#0e1220"
     d="   M 40.11 115.81   Q 36.21 125.70 34.29 136.22   L 24.19 150.98   Q 13.71 157.49 7.06 168.12   Q 3.50 173.82 0.00 179.69   L 0.00 156.59   Q 3.97 149.34 8.23 142.44   Q 19.89 123.53 40.11 115.81   Z"
     id="path8"
     style="stroke:none" />
  <path
     fill="#011527"
     d="   M 288.52 175.96   L 293.59 182.22   L 280.57 181.86   Q 251.58 168.48 221.68 157.71   Q 212.12 154.26 202.83 151.02   Q 180.17 143.11 154.36 136.69   Q 131.51 131.00 108.57 130.05   Q 90.36 129.30 75.28 132.35   C 60.30 135.38 49.18 142.05 37.90 152.25   L 40.08 140.54   C 52.41 127.16 66.90 120.26 84.89 118.84   Q 109.44 116.89 133.19 121.04   Q 155.99 125.02 177.83 132.79   Q 216.07 146.40 231.62 152.72   Q 253.93 161.79 276.20 170.98   Q 282.36 173.52 288.52 175.96   Z"
     id="path9"
     style="stroke:none" />
  <path
     fill="#200a21"
     d="   M 493.93 122.11   Q 493.00 122.87 492.56 123.79   L 491.16 125.75   L 482.78 135.01   Q 470.27 135.40 458.47 139.38   Q 453.21 141.15 440.04 147.12   C 421.67 155.45 404.01 165.32 386.14 174.66   Q 376.20 179.86 354.31 188.42   Q 348.73 187.17 343.75 184.39   Q 346.38 181.60 347.24 177.81   Q 373.77 171.23 398.04 158.42   Q 414.24 149.88 430.56 141.58   Q 448.51 132.44 463.86 127.02   Q 477.56 122.18 493.93 122.11   Z"
     id="path10"
     style="stroke:none" />
  <path
     fill="#010309"
     d="   M 492.56 123.79   Q 486.65 148.49 483.93 166.71   Q 481.56 182.69 483.19 200.95   Q 484.69 217.77 490.96 238.28   C 496.08 255.02 500.57 269.15 507.07 283.35   Q 511.53 293.10 522.00 310.65   L 522.00 353.79   Q 515.28 319.18 501.69 286.78   C 497.31 276.34 490.39 262.53 485.77 252.25   C 480.20 239.86 477.40 226.98 476.61 212.97   Q 474.31 171.85 489.25 133.07   L 491.16 125.75   L 492.56 123.79   Z"
     id="path11"
     style="stroke:none" />
  <path
     fill="#0d0417"
     d="   M 491.16 125.75   L 489.25 133.07   Q 478.41 158.65 472.57 181.85   Q 466.80 204.74 462.71 233.83   Q 460.41 250.21 461.52 268.16   L 455.90 276.95   L 450.24 254.71   Q 449.95 235.47 450.88 223.29   Q 452.30 204.75 459.77 185.39   Q 468.27 163.32 477.41 141.45   L 482.78 135.01   L 491.16 125.75   Z"
     id="path12"
     style="stroke:none" />
  <path
     fill="#011e36"
     d="   M 280.57 181.86   Q 277.17 188.20 275.96 192.50   Q 274.54 197.53 277.97 202.73   L 255.78 212.55   Q 250.48 207.32 245.10 202.12   Q 239.15 196.37 226.28 191.13   C 208.96 184.08 190.74 179.04 172.80 175.01   Q 155.11 171.04 135.70 169.41   Q 90.30 165.59 50.13 184.59   Q 43.01 187.96 35.70 191.58   Q 34.95 182.82 30.76 175.69   Q 33.20 163.63 37.90 152.25   C 49.18 142.05 60.30 135.38 75.28 132.35   Q 90.36 129.30 108.57 130.05   Q 131.51 131.00 154.36 136.69   Q 180.17 143.11 202.83 151.02   Q 212.12 154.26 221.68 157.71   Q 251.58 168.48 280.57 181.86   Z"
     id="path13"
     style="stroke:none" />
  <path
     fill="#2e0f2c"
     d="   M 482.78 135.01   L 477.41 141.45   L 469.83 150.52   Q 449.73 156.35 427.70 167.17   Q 385.09 188.10 371.98 194.85   Q 361.40 194.91 351.02 197.59   L 354.31 188.42   Q 376.20 179.86 386.14 174.66   C 404.01 165.32 421.67 155.45 440.04 147.12   Q 453.21 141.15 458.47 139.38   Q 470.27 135.40 482.78 135.01   Z"
     id="path14"
     style="stroke:none" />
  <path
     fill="#010814"
     d="   M 489.25 133.07   Q 474.31 171.85 476.61 212.97   C 477.40 226.98 480.20 239.86 485.77 252.25   C 490.39 262.53 497.31 276.34 501.69 286.78   Q 515.28 319.18 522.00 353.79   L 522.00 377.26   Q 508.15 344.08 490.67 312.66   Q 484.27 301.14 480.11 296.22   Q 472.47 287.20 470.50 284.43   Q 466.14 278.32 461.52 268.16   Q 460.41 250.21 462.71 233.83   Q 466.80 204.74 472.57 181.85   Q 478.41 158.65 489.25 133.07   Z"
     id="path15"
     style="stroke:none" />
  <path
     fill="#101b2c"
     d="   M 34.29 136.22   L 40.08 140.54   L 37.90 152.25   Q 33.20 163.63 30.76 175.69   L 23.38 187.45   Q 22.04 188.68 20.92 187.96   L 24.19 150.98   L 34.29 136.22   Z"
     id="path16"
     style="stroke:none" />
  <path
     fill="#170719"
     d="   M 477.41 141.45   Q 468.27 163.32 459.77 185.39   Q 452.30 204.75 450.88 223.29   Q 449.95 235.47 450.24 254.71   L 439.97 279.47   L 437.14 264.63   Q 438.38 249.60 439.44 234.83   Q 440.81 215.74 446.85 197.57   Q 452.18 181.53 460.98 161.21   L 469.83 150.52   L 477.41 141.45   Z"
     id="path17"
     style="stroke:none" />
  <path
     fill="#40163a"
     d="   M 469.83 150.52   L 460.98 161.21   L 445.85 178.03   Q 431.10 184.11 420.16 189.94   Q 389.91 206.04 368.30 216.62   L 347.00 222.97   Q 351.03 214.63 353.79 211.13   C 358.85 204.68 365.44 199.71 371.98 194.85   Q 385.09 188.10 427.70 167.17   Q 449.73 156.35 469.83 150.52   Z"
     id="path18"
     style="stroke:none" />
  <path
     fill="#1c182c"
     d="   M 24.19 150.98   L 20.92 187.96   C 14.86 204.98 8.27 221.99 0.00 238.05   L 0.00 179.69   Q 3.50 173.82 7.06 168.12   Q 13.71 157.49 24.19 150.98   Z"
     id="path19"
     style="stroke:none" />
  <path
     fill="#0e1220"
     d="   M 377.53 157.13   Q 366.67 161.12 355.85 165.06   Q 350.58 166.99 347.13 169.66   C 344.54 171.66 345.22 175.08 347.24 177.81   Q 346.38 181.60 343.75 184.39   Q 335.18 188.02 326.29 190.15   Q 309.13 188.72 293.59 182.22   L 288.52 175.96   Q 302.55 170.55 316.58 165.27   Q 320.54 163.78 326.32 160.51   L 340.77 159.24   L 377.53 157.13   Z"
     id="path20"
     style="stroke:none" />
  <path
     fill="#200a21"
     d="   M 460.98 161.21   Q 452.18 181.53 446.85 197.57   Q 440.81 215.74 439.44 234.83   Q 438.38 249.60 437.14 264.63   Q 432.27 260.43 428.08 265.12   Q 424.41 269.22 420.98 273.57   L 420.08 266.24   Q 422.96 244.56 427.50 229.02   Q 434.06 206.55 440.77 184.00   L 445.85 178.03   L 460.98 161.21   Z"
     id="path21"
     style="stroke:none" />
  <path
     fill="#012949"
     d="   M 255.78 212.55   Q 251.54 212.75 247.84 214.48   C 224.80 205.96 201.03 199.09 177.06 193.83   C 150.19 187.94 121.71 186.61 94.78 191.92   Q 66.49 197.49 45.38 217.03   Q 36.01 225.70 26.97 241.53   L 24.83 218.00   L 26.51 207.71   L 35.70 191.58   Q 43.01 187.96 50.13 184.59   Q 90.30 165.59 135.70 169.41   Q 155.11 171.04 172.80 175.01   C 190.74 179.04 208.96 184.08 226.28 191.13   Q 239.15 196.37 245.10 202.12   Q 250.48 207.32 255.78 212.55   Z"
     id="path22"
     style="stroke:none" />
  <path
     fill="#12192e"
     d="   M 35.70 191.58   L 26.51 207.71   Q 23.42 198.01 23.38 187.45   L 30.76 175.69   Q 34.95 182.82 35.70 191.58   Z"
     id="path23"
     style="stroke:none" />
  <path
     fill="#571d4e"
     d="   M 445.85 178.03   L 440.77 184.00   L 424.20 203.57   Q 407.75 209.68 395.03 217.10   Q 371.70 230.72 358.58 237.74   Q 360.96 229.33 360.35 221.22   L 368.30 216.62   Q 389.91 206.04 420.16 189.94   Q 431.10 184.11 445.85 178.03   Z"
     id="path24"
     style="stroke:none" />
  <path
     fill="#101b2c"
     d="   M 293.59 182.22   Q 309.13 188.72 326.29 190.15   L 313.46 198.29   L 290.73 205.05   L 277.97 202.73   Q 274.54 197.53 275.96 192.50   Q 277.17 188.20 280.57 181.86   L 293.59 182.22   Z"
     id="path25"
     style="stroke:none" />
  <path
     fill="#2e0c33"
     d="   M 440.77 184.00   Q 434.06 206.55 427.50 229.02   Q 422.96 244.56 420.08 266.24   Q 416.81 271.92 414.12 274.75   Q 409.72 279.38 401.80 285.47   C 404.80 265.42 408.57 249.86 414.14 229.17   Q 415.32 224.78 418.64 210.14   L 424.20 203.57   L 440.77 184.00   Z"
     id="path26"
     style="stroke:none" />
  <path
     fill="#1c182c"
     d="   M 343.75 184.39   Q 348.73 187.17 354.31 188.42   L 351.02 197.59   L 338.25 205.02   Q 325.65 202.42 313.46 198.29   L 326.29 190.15   Q 335.18 188.02 343.75 184.39   Z"
     id="path27"
     style="stroke:none" />
  <path
     fill="#1e253d"
     d="   M 23.38 187.45   Q 23.42 198.01 26.51 207.71   L 24.83 218.00   L 21.48 235.31   Q 12.42 248.20 6.36 262.81   Q 3.23 270.34 0.00 277.92   L 0.00 238.05   C 8.27 221.99 14.86 204.98 20.92 187.96   Q 22.04 188.68 23.38 187.45   Z"
     id="path28"
     style="stroke:none" />
  <path
     fill="#013054"
     d="   M 247.84 214.48   C 249.80 223.87 254.28 230.64 262.02 236.33   Q 254.55 246.35 248.94 257.50   Q 245.27 258.25 243.06 254.24   Q 238.87 251.71 234.69 249.11   C 225.77 243.55 214.76 237.76 208.00 233.64   Q 197.34 227.14 191.41 225.14   Q 182.48 222.12 172.48 220.70   Q 149.41 217.44 127.10 218.81   Q 107.58 220.01 91.21 225.40   Q 62.35 234.90 42.17 258.55   Q 31.12 271.50 25.04 280.10   L 23.04 271.54   L 26.97 241.53   Q 36.01 225.70 45.38 217.03   Q 66.49 197.49 94.78 191.92   C 121.71 186.61 150.19 187.94 177.06 193.83   C 201.03 199.09 224.80 205.96 247.84 214.48   Z"
     id="path29"
     style="stroke:none" />
  <path
     fill="#291737"
     d="   M 371.98 194.85   C 365.44 199.71 358.85 204.68 353.79 211.13   Q 351.03 214.63 347.00 222.97   L 326.21 230.98   Q 321.85 226.86 316.28 225.32   Q 314.92 221.83 318.05 218.75   L 338.25 205.02   L 351.02 197.59   Q 361.40 194.91 371.98 194.85   Z"
     id="path30"
     style="stroke:none" />
  <path
     fill="#20203a"
     d="   M 313.46 198.29   Q 325.65 202.42 338.25 205.02   L 318.05 218.75   Q 306.12 216.22 295.75 210.57   Q 294.64 206.93 290.73 205.05   L 313.46 198.29   Z"
     id="path31"
     style="stroke:none" />
  <path
     fill="#69225c"
     d="   M 424.20 203.57   L 418.64 210.14   L 407.83 222.48   Q 394.85 227.82 382.98 234.88   Q 369.25 242.16 354.75 247.31   L 349.98 243.40   L 358.58 237.74   Q 371.70 230.72 395.03 217.10   Q 407.75 209.68 424.20 203.57   Z"
     id="path32"
     style="stroke:none" />
  <path
     fill="#122f44"
     d="   M 290.73 205.05   Q 294.64 206.93 295.75 210.57   Q 288.39 213.34 284.55 216.12   Q 280.58 219.00 279.75 222.02   Q 278.58 226.28 277.60 230.58   Q 277.07 232.88 273.88 238.94   L 262.02 236.33   C 254.28 230.64 249.80 223.87 247.84 214.48   Q 251.54 212.75 255.78 212.55   L 277.97 202.73   L 290.73 205.05   Z"
     id="path33"
     style="stroke:none" />
  <path
     fill="#233046"
     d="   M 295.75 210.57   Q 306.12 216.22 318.05 218.75   Q 314.92 221.83 316.28 225.32   Q 298.73 237.56 283.68 252.63   L 271.17 246.73   Q 273.31 243.04 273.88 238.94   Q 277.07 232.88 277.60 230.58   Q 278.58 226.28 279.75 222.02   Q 280.58 219.00 284.55 216.12   Q 288.39 213.34 295.75 210.57   Z"
     id="path34"
     style="stroke:none" />
  <path
     fill="#3c1945"
     d="   M 418.64 210.14   Q 415.32 224.78 414.14 229.17   C 408.57 249.86 404.80 265.42 401.80 285.47   L 402.05 326.73   Q 396.52 332.23 394.91 339.98   Q 393.35 347.49 392.84 355.24   L 384.64 345.28   Q 384.41 330.16 384.34 315.01   Q 384.24 293.17 390.25 272.16   Q 396.58 250.05 402.98 228.07   L 407.83 222.48   L 418.64 210.14   Z"
     id="path35"
     style="stroke:none" />
  <path
     fill="#122f44"
     d="   M 26.97 241.53   L 23.04 271.54   L 12.72 298.95   C 14.84 276.46 17.17 256.05 21.48 235.31   L 24.83 218.00   L 26.97 241.53   Z"
     id="path36"
     style="stroke:none" />
  <path
     fill="#452d4f"
     d="   M 368.30 216.62   L 360.35 221.22   Q 341.84 232.84 324.30 245.62   L 320.59 244.38   Q 319.71 241.27 317.81 239.27   L 326.21 230.98   L 347.00 222.97   L 368.30 216.62   Z"
     id="path37"
     style="stroke:none" />
  <path
     fill="#01385e"
     d="   M 243.06 254.24   Q 237.25 269.20 235.85 278.63   Q 231.34 308.82 221.30 339.00   Q 212.33 365.94 206.74 381.98   Q 195.60 396.98 188.55 409.95   Q 173.31 438.02 162.03 457.42   C 155.75 468.22 147.05 481.36 140.82 491.50   Q 138.82 494.77 137.77 497.88   A 0.81 0.81 0.0 0 0 138.85 498.89   L 144.13 496.65   A 0.58 0.57 79.8 0 1 144.93 497.21   Q 144.90 498.05 144.30 499.20   Q 139.78 507.82 134.52 516.01   Q 124.99 526.29 110.71 540.45   Q 95.08 555.96 77.54 567.16   Q 64.53 575.48 51.49 579.02   Q 30.33 584.76 10.14 574.63   Q 5.03 572.06 0.00 569.21   L 0.00 468.21   C 4.23 483.13 8.68 497.22 17.57 509.89   C 30.40 528.15 50.29 536.52 72.08 529.68   C 92.62 523.23 110.56 506.66 122.70 489.34   Q 132.96 474.71 151.69 446.42   C 169.40 419.67 182.53 391.28 193.01 360.65   C 201.56 335.65 206.89 308.35 192.81 284.11   Q 185.47 271.48 183.67 268.56   C 178.91 260.85 169.96 257.92 161.64 256.58   Q 141.90 253.39 121.47 255.33   Q 106.52 256.75 95.14 261.56   C 70.50 271.97 50.18 291.42 36.45 314.93   Q 26.19 332.51 20.69 348.91   C 11.37 376.67 8.90 403.36 5.56 436.25   Q 4.22 449.46 0.00 465.92   L 0.00 386.26   Q 6.97 355.24 13.68 324.39   Q 15.99 313.79 25.04 280.10   Q 31.12 271.50 42.17 258.55   Q 62.35 234.90 91.21 225.40   Q 107.58 220.01 127.10 218.81   Q 149.41 217.44 172.48 220.70   Q 182.48 222.12 191.41 225.14   Q 197.34 227.14 208.00 233.64   C 214.76 237.76 225.77 243.55 234.69 249.11   Q 238.87 251.71 243.06 254.24   Z"
     id="path38"
     style="stroke:none" />
  <path
     fill="#512952"
     d="   M 358.58 237.74   L 349.98 243.40   Q 340.36 251.87 328.99 257.84   Q 330.35 255.55 330.74 253.41   A 1.04 1.03 -85.9 0 0 329.69 252.19   C 326.72 252.27 322.83 254.41 320.23 255.72   L 324.30 245.62   Q 341.84 232.84 360.35 221.22   Q 360.96 229.33 358.58 237.74   Z"
     id="path39"
     style="stroke:none" />
  <path
     fill="#772370"
     d="   M 407.83 222.48   L 402.98 228.07   L 395.03 237.79   L 385.11 250.99   Q 375.95 250.73 367.13 252.80   Q 366.64 252.91 366.47 253.39   Q 365.63 255.91 364.82 258.37   Q 364.09 260.62 362.55 262.05   Q 354.88 269.19 344.04 282.73   C 342.37 284.81 339.88 287.33 336.92 286.90   Q 336.42 286.83 336.29 287.32   Q 330.60 308.64 329.55 313.05   Q 329.02 315.26 328.81 319.57   L 325.78 324.01   L 314.45 340.95   L 312.31 344.08   Q 315.55 333.20 320.06 322.87   Q 328.45 303.64 336.51 284.26   Q 342.74 269.26 354.81 258.42   Q 368.46 246.16 382.98 234.88   Q 394.85 227.82 407.83 222.48   Z"
     id="path40"
     style="stroke:none" />
  <path
     fill="#312f49"
     d="   M 326.21 230.98   L 317.81 239.27   Q 301.63 251.14 288.06 266.02   L 283.68 252.63   Q 298.73 237.56 316.28 225.32   Q 321.85 226.86 326.21 230.98   Z"
     id="path41"
     style="stroke:none" />
  <path
     fill="#501d53"
     d="   M 402.98 228.07   Q 396.58 250.05 390.25 272.16   Q 384.24 293.17 384.34 315.01   Q 384.41 330.16 384.64 345.28   L 380.95 360.99   Q 379.83 356.96 377.86 353.42   Q 376.39 350.78 373.54 350.64   Q 372.17 340.40 372.50 330.14   Q 377.10 303.69 381.76 286.56   Q 388.33 262.40 395.03 237.79   L 402.98 228.07   Z"
     id="path42"
     style="stroke:none" />
  <path
     fill="#6f2e62"
     d="   M 382.98 234.88   Q 368.46 246.16 354.81 258.42   Q 342.74 269.26 336.51 284.26   Q 328.45 303.64 320.06 322.87   Q 315.55 333.20 312.31 344.08   L 294.33 371.75   Q 297.62 357.07 301.10 347.50   Q 311.81 318.09 328.24 285.08   Q 337.93 265.62 354.75 247.31   Q 369.25 242.16 382.98 234.88   Z"
     id="path43"
     style="stroke:none" />
  <path
     fill="#1b324f"
     d="   M 12.72 298.95   L 0.00 374.05   L 0.00 277.92   Q 3.23 270.34 6.36 262.81   Q 12.42 248.20 21.48 235.31   C 17.17 256.05 14.84 276.46 12.72 298.95   Z"
     id="path44"
     style="stroke:none" />
  <path
     fill="#1a3c54"
     d="   M 262.02 236.33   L 273.88 238.94   Q 273.31 243.04 271.17 246.73   Q 263.00 260.72 259.49 276.49   Q 254.92 297.04 248.89 320.76   C 243.69 341.21 239.87 364.12 235.04 385.78   Q 231.65 395.18 226.68 406.19   Q 221.36 417.97 213.35 427.28   Q 211.01 429.99 206.94 430.19   C 213.87 406.72 220.85 385.50 228.60 360.08   C 234.28 341.45 238.66 323.24 243.95 303.63   Q 248.03 288.55 249.12 279.90   Q 250.39 269.75 248.94 257.50   Q 254.55 246.35 262.02 236.33   Z"
     id="path45"
     style="stroke:none" />
  <path
     fill="#571d4e"
     d="   M 395.03 237.79   Q 388.33 262.40 381.76 286.56   Q 377.10 303.69 372.50 330.14   L 370.70 329.49   C 372.85 302.93 378.05 281.74 384.94 251.23   Q 385.03 251.11 385.11 250.99   L 395.03 237.79   Z"
     id="path46"
     style="stroke:none" />
  <path
     fill="#373d56"
     d="   M 320.59 244.38   Q 306.46 260.07 297.61 279.30   Q 292.00 291.50 288.97 300.07   Q 283.43 315.76 277.91 331.46   Q 272.90 345.72 263.74 363.50   Q 261.86 352.84 265.04 340.03   Q 271.28 314.93 276.46 297.02   Q 280.83 281.93 288.06 266.02   Q 301.63 251.14 317.81 239.27   Q 319.71 241.27 320.59 244.38   Z"
     id="path47"
     style="stroke:none" />
  <path
     fill="#62315e"
     d="   M 349.98 243.40   L 354.75 247.31   Q 337.93 265.62 328.24 285.08   Q 311.81 318.09 301.10 347.50   Q 297.62 357.07 294.33 371.75   L 293.73 373.01   L 267.10 416.77   L 275.51 383.69   Q 287.40 363.69 292.51 345.56   Q 296.67 330.85 301.48 316.36   Q 311.78 285.33 328.99 257.84   Q 340.36 251.87 349.98 243.40   Z"
     id="path48"
     style="stroke:none" />
  <path
     fill="#443956"
     d="   M 324.30 245.62   L 320.23 255.72   Q 312.42 273.08 304.85 290.54   Q 300.82 299.82 300.09 301.89   Q 294.21 318.62 288.40 335.37   Q 288.07 336.34 284.16 345.76   Q 275.98 365.48 268.04 385.28   Q 264.30 390.76 262.94 393.28   Q 253.82 410.16 244.50 427.03   L 243.20 419.22   L 263.74 363.50   Q 272.90 345.72 277.91 331.46   Q 283.43 315.76 288.97 300.07   Q 292.00 291.50 297.61 279.30   Q 306.46 260.07 320.59 244.38   L 324.30 245.62   Z"
     id="path49"
     style="stroke:none" />
  <path
     fill="#513457"
     d="   M 328.99 257.84   Q 311.78 285.33 301.48 316.36   Q 296.67 330.85 292.51 345.56   Q 287.40 363.69 275.51 383.69   Q 267.94 395.80 262.74 409.25   L 268.04 385.28   Q 275.98 365.48 284.16 345.76   Q 288.07 336.34 288.40 335.37   Q 294.21 318.62 300.09 301.89   Q 300.82 299.82 304.85 290.54   Q 312.42 273.08 320.23 255.72   C 322.83 254.41 326.72 252.27 329.69 252.19   A 1.04 1.03 -85.9 0 1 330.74 253.41   Q 330.35 255.55 328.99 257.84   Z"
     id="path50"
     style="stroke:none" />
  <path
     fill="#2c4057"
     d="   M 283.68 252.63   L 288.06 266.02   Q 280.83 281.93 276.46 297.02   Q 271.28 314.93 265.04 340.03   Q 261.86 352.84 263.74 363.50   L 243.20 419.22   Q 240.91 421.08 238.48 421.51   A 2.28 2.28 0.0 0 1 236.09 420.39   C 234.29 417.21 234.38 411.92 234.37 408.29   Q 235.79 401.27 236.33 394.16   Q 236.66 389.80 235.04 385.78   C 239.87 364.12 243.69 341.21 248.89 320.76   Q 254.92 297.04 259.49 276.49   Q 263.00 260.72 271.17 246.73   L 283.68 252.63   Z"
     id="path51"
     style="stroke:none" />
  <path
     fill="#863174"
     d="   M 385.11 250.99   Q 385.03 251.11 384.94 251.23   Q 381.62 256.38 377.21 260.61   L 369.26 270.61   Q 368.62 265.21 364.42 262.30   Q 364.00 262.01 363.85 262.49   Q 362.40 267.15 361.18 271.92   Q 360.34 275.18 357.10 280.80   C 355.41 283.68 353.77 286.49 351.64 289.13   Q 347.19 294.64 346.41 295.53   Q 344.43 297.80 343.02 300.23   Q 341.80 302.34 339.47 304.86   Q 337.89 306.56 334.34 311.87   Q 331.72 315.80 328.81 319.57   Q 329.02 315.26 329.55 313.05   Q 330.60 308.64 336.29 287.32   Q 336.42 286.83 336.92 286.90   C 339.88 287.33 342.37 284.81 344.04 282.73   Q 354.88 269.19 362.55 262.05   Q 364.09 260.62 364.82 258.37   Q 365.63 255.91 366.47 253.39   Q 366.64 252.91 367.13 252.80   Q 375.95 250.73 385.11 250.99   Z"
     id="path52"
     style="stroke:none" />
  <path
     fill="#69225c"
     d="   M 384.94 251.23   C 378.05 281.74 372.85 302.93 370.70 329.49   Q 367.22 344.84 361.43 359.58   Q 360.98 346.94 357.16 335.38   Q 362.70 311.78 368.94 288.14   Q 372.57 274.36 377.21 260.61   Q 381.62 256.38 384.94 251.23   Z"
     id="path53"
     style="stroke:none" />
  <path
     fill="#01426e"
     d="   M 0.00 468.21   L 0.00 465.92   Q 4.22 449.46 5.56 436.25   C 8.90 403.36 11.37 376.67 20.69 348.91   Q 26.19 332.51 36.45 314.93   C 50.18 291.42 70.50 271.97 95.14 261.56   Q 106.52 256.75 121.47 255.33   Q 141.90 253.39 161.64 256.58   C 169.96 257.92 178.91 260.85 183.67 268.56   Q 185.47 271.48 192.81 284.11   C 206.89 308.35 201.56 335.65 193.01 360.65   C 182.53 391.28 169.40 419.67 151.69 446.42   Q 132.96 474.71 122.70 489.34   C 110.56 506.66 92.62 523.23 72.08 529.68   C 50.29 536.52 30.40 528.15 17.57 509.89   C 8.68 497.22 4.23 483.13 0.00 468.21   Z   M 43.67 352.04   C 37.65 366.94 32.58 385.43 29.29 399.24   C 24.06 421.18 22.60 442.65 28.28 463.94   C 31.61 476.39 38.45 490.05 51.07 493.98   C 64.14 498.05 80.86 493.59 92.19 486.88   C 105.45 479.02 115.92 466.66 124.90 454.12   C 143.76 427.77 160.13 399.46 169.56 367.98   C 176.45 344.97 180.53 313.44 159.25 296.68   Q 142.26 283.29 120.05 284.23   C 102.95 284.95 88.61 293.09 76.10 304.82   Q 54.58 324.99 43.67 352.04   Z"
     id="path54"
     style="stroke:none" />
  <path
     fill="#1c182c"
     d="   M 437.14 264.63   L 439.97 279.47   L 442.94 323.49   Q 439.89 319.89 436.31 317.01   C 432.31 313.80 429.85 316.91 427.96 320.29   L 420.81 305.05   L 420.98 273.57   Q 424.41 269.22 428.08 265.12   Q 432.27 260.43 437.14 264.63   Z"
     id="path55"
     style="stroke:none" />
  <path
     fill="#12415b"
     d="   M 248.94 257.50   Q 250.39 269.75 249.12 279.90   Q 248.03 288.55 243.95 303.63   C 238.66 323.24 234.28 341.45 228.60 360.08   C 220.85 385.50 213.87 406.72 206.94 430.19   Q 203.64 434.85 198.69 436.83   L 199.65 426.04   Q 205.90 404.51 206.74 381.98   Q 212.33 365.94 221.30 339.00   Q 231.34 308.82 235.85 278.63   Q 237.25 269.20 243.06 254.24   Q 245.27 258.25 248.94 257.50   Z"
     id="path56"
     style="stroke:none" />
  <path
     fill="#0e1220"
     d="   M 455.90 276.95   Q 456.94 292.85 458.33 303.39   Q 460.65 320.97 466.63 340.02   L 459.92 360.21   L 456.63 356.38   Q 450.98 339.62 442.94 323.49   L 439.97 279.47   L 450.24 254.71   L 455.90 276.95   Z"
     id="path57"
     style="stroke:none" />
  <path
     fill="#772370"
     d="   M 377.21 260.61   Q 372.57 274.36 368.94 288.14   Q 362.70 311.78 357.16 335.38   L 348.73 373.23   L 346.48 361.66   Q 349.22 338.36 356.07 315.79   Q 359.22 305.44 364.94 276.98   L 369.26 270.61   L 377.21 260.61   Z"
     id="path58"
     style="stroke:none" />
  <path
     fill="#9a3d86"
     d="   M 369.26 270.61   L 364.94 276.98   Q 362.46 280.98 358.33 283.75   Q 358.35 282.11 357.10 280.80   Q 360.34 275.18 361.18 271.92   Q 362.40 267.15 363.85 262.49   Q 364.00 262.01 364.42 262.30   Q 368.62 265.21 369.26 270.61   Z"
     id="path59"
     style="stroke:none" />
  <path
     fill="#291737"
     d="   M 420.98 273.57   L 420.81 305.05   L 412.62 331.50   L 402.05 326.73   L 401.80 285.47   Q 409.72 279.38 414.12 274.75   Q 416.81 271.92 420.08 266.24   L 420.98 273.57   Z"
     id="path60"
     style="stroke:none" />
  <path
     fill="#010f1f"
     d="   M 522.00 377.26   L 522.00 416.15   Q 508.12 392.58 495.11 373.57   Q 482.99 355.86 466.63 340.02   Q 460.65 320.97 458.33 303.39   Q 456.94 292.85 455.90 276.95   L 461.52 268.16   Q 466.14 278.32 470.50 284.43   Q 472.47 287.20 480.11 296.22   Q 484.27 301.14 490.67 312.66   Q 508.15 344.08 522.00 377.26   Z"
     id="path61"
     style="stroke:none" />
  <path
     fill="#153a5d"
     d="   M 25.04 280.10   Q 15.99 313.79 13.68 324.39   Q 6.97 355.24 0.00 386.26   L 0.00 374.05   L 12.72 298.95   L 23.04 271.54   L 25.04 280.10   Z"
     id="path62"
     style="stroke:none" />
  <path
     fill="#87267d"
     d="   M 364.94 276.98   Q 359.22 305.44 356.07 315.79   Q 349.22 338.36 346.48 361.66   Q 342.49 367.74 340.58 375.10   Q 340.14 373.20 339.23 371.77   L 350.32 296.77   L 358.33 283.75   Q 362.46 280.98 364.94 276.98   Z"
     id="path63"
     style="stroke:none" />
  <path
     fill="#b430a0"
     d="   M 358.33 283.75   L 350.32 296.77   Q 347.72 299.64 345.63 302.97   Q 343.84 305.82 342.73 310.09   Q 335.87 336.38 333.83 345.18   Q 333.55 346.38 331.00 359.51   C 328.29 373.46 324.02 389.29 322.48 401.27   Q 320.47 416.82 318.21 432.23   Q 316.71 434.82 314.73 436.49   A 1.16 1.16 0.0 0 1 312.93 436.09   Q 311.94 433.91 311.87 431.45   Q 311.70 425.45 312.75 414.63   Q 313.17 410.28 314.98 405.47   Q 316.39 401.73 318.50 395.24   Q 318.52 395.18 320.86 389.06   Q 322.45 384.92 322.63 380.64   Q 322.68 379.28 322.00 380.46   Q 315.52 391.71 311.52 404.50   Q 305.17 418.33 300.51 432.73   Q 300.12 433.93 298.81 436.62   Q 299.06 428.77 300.37 419.59   C 303.46 397.92 305.94 379.87 312.82 362.62   Q 316.00 354.66 319.98 345.02   Q 324.16 334.89 325.78 324.01   L 328.81 319.57   Q 331.72 315.80 334.34 311.87   Q 337.89 306.56 339.47 304.86   Q 341.80 302.34 343.02 300.23   Q 344.43 297.80 346.41 295.53   Q 347.19 294.64 351.64 289.13   C 353.77 286.49 355.41 283.68 357.10 280.80   Q 358.35 282.11 358.33 283.75   Z"
     id="path64"
     style="stroke:none" />
  <path
     fill="#004877"
     d="   M 29.29 399.24   C 32.58 385.43 37.65 366.94 43.67 352.04   Q 54.58 324.99 76.10 304.82   C 88.61 293.09 102.95 284.95 120.05 284.23   Q 142.26 283.29 159.25 296.68   C 180.53 313.44 176.45 344.97 169.56 367.98   C 160.13 399.46 143.76 427.77 124.90 454.12   C 115.92 466.66 105.45 479.02 92.19 486.88   C 80.86 493.59 64.14 498.05 51.07 493.98   C 38.45 490.05 31.61 476.39 28.28 463.94   C 22.60 442.65 24.06 421.18 29.29 399.24   Z"
     id="path65"
     style="stroke:none" />
  <path
     fill="#9a3d86"
     d="   M 350.32 296.77   L 339.23 371.77   L 331.70 417.48   Q 330.39 415.77 329.03 415.31   A 2.29 2.28 -63.6 0 0 326.40 416.20   Q 324.80 418.58 323.93 421.10   Q 320.36 431.53 317.75 442.26   L 318.21 432.23   Q 320.47 416.82 322.48 401.27   C 324.02 389.29 328.29 373.46 331.00 359.51   Q 333.55 346.38 333.83 345.18   Q 335.87 336.38 342.73 310.09   Q 343.84 305.82 345.63 302.97   Q 347.72 299.64 350.32 296.77   Z"
     id="path66"
     style="stroke:none" />
  <path
     fill="#12192e"
     d="   M 442.94 323.49   Q 450.98 339.62 456.63 356.38   Q 454.12 360.77 450.24 363.00   Q 449.07 363.67 444.61 364.73   Q 440.94 365.59 437.85 367.66   L 431.30 356.38   L 427.96 320.29   C 429.85 316.91 432.31 313.80 436.31 317.01   Q 439.89 319.89 442.94 323.49   Z"
     id="path67"
     style="stroke:none" />
  <path
     fill="#20203a"
     d="   M 427.96 320.29   L 431.30 356.38   Q 429.51 360.58 428.97 364.07   Q 427.62 372.80 428.31 382.76   L 419.41 383.01   Q 412.84 357.77 412.62 331.50   L 420.81 305.05   L 427.96 320.29   Z"
     id="path68"
     style="stroke:none" />
  <path
     fill="#da50bb"
     d="   M 298.81 436.62   Q 295.99 444.86 293.08 453.05   Q 291.57 457.32 288.95 465.31   Q 286.93 471.46 284.67 477.53   Q 284.23 478.71 283.15 482.60   Q 282.53 484.84 281.41 487.65   Q 280.46 490.04 276.98 501.94   Q 275.98 505.38 275.03 508.22   Q 273.59 512.53 273.17 514.55   Q 272.07 519.78 270.57 524.06   C 268.87 528.95 267.69 535.57 265.56 541.35   Q 264.46 544.33 263.93 548.18   Q 263.66 550.15 262.22 553.80   Q 260.94 557.02 260.23 560.48   C 248.90 579.28 243.94 590.12 233.24 612.10   C 227.42 624.05 221.06 634.63 213.68 647.69   Q 208.82 656.30 202.23 672.30   Q 203.61 663.57 205.72 655.01   Q 208.31 644.48 209.63 637.82   Q 212.71 622.25 217.00 606.95   L 220.03 598.28   Q 235.51 571.15 247.85 542.44   Q 250.80 535.58 255.75 524.07   Q 275.26 478.68 286.70 429.63   Q 287.87 424.59 289.93 413.29   Q 290.78 408.58 292.77 403.79   Q 297.11 393.36 300.44 386.30   Q 300.65 385.87 300.62 385.38   Q 299.83 374.62 303.57 366.54   Q 306.31 360.63 310.40 354.21   C 312.78 350.46 315.35 345.64 314.45 340.95   L 325.78 324.01   Q 324.16 334.89 319.98 345.02   Q 316.00 354.66 312.82 362.62   C 305.94 379.87 303.46 397.92 300.37 419.59   Q 299.06 428.77 298.81 436.62   Z"
     id="path69"
     style="stroke:none" />
  <path
     fill="#2f2848"
     d="   M 412.62 331.50   Q 412.84 357.77 419.41 383.01   L 420.63 402.81   Q 417.85 398.27 414.56 394.18   Q 413.00 392.25 411.07 391.31   A 2.44 2.43 -56.8 0 0 408.17 391.92   Q 406.81 393.52 406.17 395.86   Q 404.85 400.74 404.15 405.81   Q 399.46 401.37 395.98 395.93   C 393.82 382.18 393.63 372.32 392.84 355.24   Q 393.35 347.49 394.91 339.98   Q 396.52 332.23 402.05 326.73   L 412.62 331.50   Z"
     id="path70"
     style="stroke:none" />
  <path
     fill="#62315e"
     d="   M 372.50 330.14   Q 372.17 340.40 373.54 350.64   L 372.69 383.35   Q 369.70 392.56 364.85 400.73   L 360.88 385.77   L 361.43 359.58   Q 367.22 344.84 370.70 329.49   L 372.50 330.14   Z"
     id="path71"
     style="stroke:none" />
  <path
     fill="#6f2e62"
     d="   M 361.43 359.58   L 360.88 385.77   Q 356.63 385.90 354.04 390.16   Q 351.73 393.94 350.70 395.98   L 348.79 390.90   L 348.73 373.23   L 357.16 335.38   Q 360.98 346.94 361.43 359.58   Z"
     id="path72"
     style="stroke:none" />
  <path
     fill="#011527"
     d="   M 466.63 340.02   Q 482.99 355.86 495.11 373.57   Q 508.12 392.58 522.00 416.15   L 522.00 450.64   Q 505.11 428.19 488.41 405.63   Q 472.40 383.99 459.92 360.21   L 466.63 340.02   Z"
     id="path73"
     style="stroke:none" />
  <path
     fill="#513457"
     d="   M 380.95 360.99   L 381.54 388.93   L 379.88 399.97   L 372.69 383.35   L 373.54 350.64   Q 376.39 350.78 377.86 353.42   Q 379.83 356.96 380.95 360.99   Z"
     id="path74"
     style="stroke:none" />
  <path
     fill="#ed54c0"
     d="   M 314.45 340.95   C 315.35 345.64 312.78 350.46 310.40 354.21   Q 306.31 360.63 303.57 366.54   Q 299.83 374.62 300.62 385.38   Q 300.65 385.87 300.44 386.30   Q 297.11 393.36 292.77 403.79   Q 290.78 408.58 289.93 413.29   Q 287.87 424.59 286.70 429.63   Q 275.26 478.68 255.75 524.07   Q 250.80 535.58 247.85 542.44   Q 235.51 571.15 220.03 598.28   Q 222.00 591.00 224.17 583.76   Q 224.19 583.70 227.43 572.09   C 229.73 563.85 233.59 555.70 235.67 548.29   Q 238.16 539.42 241.43 529.16   Q 244.32 520.03 246.96 514.58   C 250.27 507.74 251.97 500.18 255.31 492.99   Q 257.61 488.06 259.17 482.84   C 261.56 474.86 266.78 465.06 269.12 458.84   Q 273.32 447.67 273.37 447.53   C 276.74 439.70 279.68 431.38 283.73 423.49   Q 284.64 421.72 287.94 412.75   Q 288.63 410.86 288.67 409.46   C 288.79 405.14 285.95 401.92 286.73 398.12   Q 287.15 396.05 287.51 395.42   C 291.27 388.83 293.24 385.42 294.64 379.03   Q 295.64 375.41 293.73 373.01   L 294.33 371.75   L 312.31 344.08   L 314.45 340.95   Z"
     id="path75"
     style="stroke:none" />
  <path
     fill="#452d4f"
     d="   M 392.84 355.24   C 393.63 372.32 393.82 382.18 395.98 395.93   C 389.96 397.31 385.34 392.94 381.54 388.93   L 380.95 360.99   L 384.64 345.28   L 392.84 355.24   Z"
     id="path76"
     style="stroke:none" />
  <path
     fill="#1e253d"
     d="   M 431.30 356.38   L 437.85 367.66   L 446.04 399.53   L 443.76 405.69   Q 438.58 404.37 435.85 399.90   Q 431.21 392.30 428.31 382.76   Q 427.62 372.80 428.97 364.07   Q 429.51 360.58 431.30 356.38   Z"
     id="path77"
     style="stroke:none" />
  <path
     fill="#011e36"
     d="   M 456.63 356.38   L 459.92 360.21   Q 472.40 383.99 488.41 405.63   Q 505.11 428.19 522.00 450.64   L 522.00 496.26   Q 498.12 466.74 492.48 458.92   Q 481.94 444.31 481.06 443.00   Q 470.77 427.78 460.55 412.52   C 456.78 406.90 452.31 402.44 446.04 399.53   L 437.85 367.66   Q 440.94 365.59 444.61 364.73   Q 449.07 363.67 450.24 363.00   Q 454.12 360.77 456.63 356.38   Z"
     id="path78"
     style="stroke:none" />
  <path
     fill="#863174"
     d="   M 346.48 361.66   L 348.73 373.23   L 348.79 390.90   Q 345.09 392.82 341.32 392.05   L 340.58 375.10   Q 342.49 367.74 346.48 361.66   Z"
     id="path79"
     style="stroke:none" />
  <path
     fill="#834d85"
     d="   M 340.58 375.10   L 341.32 392.05   L 343.45 442.21   Q 344.61 457.98 344.28 473.79   L 338.78 461.29   Q 338.14 451.21 335.28 441.52   L 331.70 417.48   L 339.23 371.77   Q 340.14 373.20 340.58 375.10   Z"
     id="path80"
     style="stroke:none" />
  <path
     fill="#fe62dc"
     d="   M 294.64 379.03   C 291.04 384.34 287.45 389.61 284.79 395.41   C 282.16 401.17 281.00 404.02 278.47 408.38   Q 269.70 423.48 262.26 440.75   Q 260.70 444.37 257.91 448.14   Q 245.48 464.97 234.52 485.98   C 224.86 504.49 215.33 522.90 207.33 541.42   C 200.69 556.82 195.55 572.34 190.43 588.04   Q 186.95 598.73 180.85 610.88   Q 174.51 623.51 163.52 631.06   L 165.82 611.27   Q 165.84 611.06 165.66 610.96   L 165.30 610.75   Q 165.18 610.68 165.14 610.82   L 162.57 620.96   L 163.56 615.97   Q 163.28 613.93 162.17 616.77   Q 160.71 620.52 158.89 623.99   L 161.40 614.92   L 163.67 610.29   L 190.41 553.52   Q 201.75 528.65 214.83 504.50   L 223.40 489.62   L 239.63 462.03   L 253.37 439.25   L 267.10 416.77   L 293.73 373.01   Q 295.64 375.41 294.64 379.03   Z"
     id="path81"
     style="stroke:none" />
  <path
     fill="#643e74"
     d="   M 360.88 385.77   L 364.85 400.73   Q 364.88 414.31 366.56 427.77   L 360.04 440.48   Q 353.67 436.19 348.63 430.14   Q 350.81 413.20 350.70 395.98   Q 351.73 393.94 354.04 390.16   Q 356.63 385.90 360.88 385.77   Z"
     id="path82"
     style="stroke:none" />
  <path
     fill="#512952"
     d="   M 275.51 383.69   L 267.10 416.77   L 253.37 439.25   Q 256.72 423.81 262.74 409.25   Q 267.94 395.80 275.51 383.69   Z"
     id="path83"
     style="stroke:none" />
  <path
     fill="#f94ed1"
     d="   M 294.64 379.03   C 293.24 385.42 291.27 388.83 287.51 395.42   Q 287.15 396.05 286.73 398.12   C 285.95 401.92 288.79 405.14 288.67 409.46   Q 288.63 410.86 287.94 412.75   Q 284.64 421.72 283.73 423.49   C 279.68 431.38 276.74 439.70 273.37 447.53   Q 273.32 447.67 269.12 458.84   C 266.78 465.06 261.56 474.86 259.17 482.84   Q 257.61 488.06 255.31 492.99   C 251.97 500.18 250.27 507.74 246.96 514.58   Q 244.32 520.03 241.43 529.16   Q 238.16 539.42 235.67 548.29   C 233.59 555.70 229.73 563.85 227.43 572.09   Q 224.19 583.70 224.17 583.76   Q 222.00 591.00 220.03 598.28   L 217.00 606.95   Q 215.66 607.36 214.67 606.18   L 227.22 563.90   Q 227.57 562.73 226.83 563.70   Q 216.42 577.33 207.57 592.69   Q 196.29 612.26 190.25 622.26   C 186.90 627.80 181.86 634.80 176.35 638.24   C 169.22 642.69 165.84 636.63 163.52 631.06   Q 174.51 623.51 180.85 610.88   Q 186.95 598.73 190.43 588.04   C 195.55 572.34 200.69 556.82 207.33 541.42   C 215.33 522.90 224.86 504.49 234.52 485.98   Q 245.48 464.97 257.91 448.14   Q 260.70 444.37 262.26 440.75   Q 269.70 423.48 278.47 408.38   C 281.00 404.02 282.16 401.17 284.79 395.41   C 287.45 389.61 291.04 384.34 294.64 379.03   Z"
     id="path84"
     style="stroke:none" />
  <path
     fill="#af4ba4"
     d="   M 318.21 432.23   L 317.75 442.26   Q 316.98 454.69 318.46 467.03   L 315.87 486.31   Q 305.23 492.89 297.65 503.49   Q 298.87 478.48 296.69 453.77   Q 300.98 439.54 303.16 434.13   Q 305.21 429.03 310.78 412.94   Q 312.41 408.23 311.52 404.50   Q 315.52 391.71 322.00 380.46   Q 322.68 379.28 322.63 380.64   Q 322.45 384.92 320.86 389.06   Q 318.52 395.18 318.50 395.24   Q 316.39 401.73 314.98 405.47   Q 313.17 410.28 312.75 414.63   Q 311.70 425.45 311.87 431.45   Q 311.94 433.91 312.93 436.09   A 1.16 1.16 0.0 0 0 314.73 436.49   Q 316.71 434.82 318.21 432.23   Z"
     id="path85"
     style="stroke:none" />
  <path
     fill="#122f44"
     d="   M 428.31 382.76   Q 431.21 392.30 435.85 399.90   Q 438.58 404.37 443.76 405.69   Q 445.02 411.08 445.77 417.81   C 446.69 426.11 444.20 431.99 438.67 438.50   Q 433.58 435.54 428.03 436.06   L 421.04 427.76   L 420.63 402.81   L 419.41 383.01   L 428.31 382.76   Z"
     id="path86"
     style="stroke:none" />
  <path
     fill="#452d4f"
     d="   M 268.04 385.28   L 262.74 409.25   Q 256.72 423.81 253.37 439.25   L 239.63 462.03   Q 240.61 444.25 244.50 427.03   Q 253.82 410.16 262.94 393.28   Q 264.30 390.76 268.04 385.28   Z"
     id="path87"
     style="stroke:none" />
  <path
     fill="#233046"
     d="   M 420.63 402.81   L 421.04 427.76   Q 418.22 430.44 414.68 431.97   Q 411.79 423.80 407.51 416.29   L 404.15 405.81   Q 404.85 400.74 406.17 395.86   Q 406.81 393.52 408.17 391.92   A 2.44 2.43 -56.8 0 1 411.07 391.31   Q 413.00 392.25 414.56 394.18   Q 417.85 398.27 420.63 402.81   Z"
     id="path88"
     style="stroke:none" />
  <path
     fill="#1b324f"
     d="   M 234.37 408.29   L 217.04 451.65   Q 210.75 460.20 206.81 470.24   L 183.87 486.22   L 188.27 472.14   L 198.69 436.83   Q 203.64 434.85 206.94 430.19   Q 211.01 429.99 213.35 427.28   Q 221.36 417.97 226.68 406.19   Q 231.65 395.18 235.04 385.78   Q 236.66 389.80 236.33 394.16   Q 235.79 401.27 234.37 408.29   Z"
     id="path89"
     style="stroke:none" />
  <path
     fill="#013b5a"
     d="   M 206.74 381.98   Q 205.90 404.51 199.65 426.04   Q 190.78 446.80 177.92 465.15   Q 158.65 492.66 134.52 516.01   Q 139.78 507.82 144.30 499.20   Q 144.90 498.05 144.93 497.21   A 0.58 0.57 79.8 0 0 144.13 496.65   L 138.85 498.89   A 0.81 0.81 0.0 0 1 137.77 497.88   Q 138.82 494.77 140.82 491.50   C 147.05 481.36 155.75 468.22 162.03 457.42   Q 173.31 438.02 188.55 409.95   Q 195.60 396.98 206.74 381.98   Z"
     id="path90"
     style="stroke:none" />
  <path
     fill="#4f436d"
     d="   M 372.69 383.35   L 379.88 399.97   L 385.87 417.49   Q 382.64 428.07 384.04 439.21   Q 384.76 444.94 385.71 450.46   C 376.50 445.19 371.28 437.16 366.56 427.77   Q 364.88 414.31 364.85 400.73   Q 369.70 392.56 372.69 383.35   Z"
     id="path91"
     style="stroke:none" />
  <path
     fill="#784177"
     d="   M 348.79 390.90   L 350.70 395.98   Q 350.81 413.20 348.63 430.14   L 343.45 442.21   L 341.32 392.05   Q 345.09 392.82 348.79 390.90   Z"
     id="path92"
     style="stroke:none" />
  <path
     fill="#38395c"
     d="   M 381.54 388.93   C 385.34 392.94 389.96 397.31 395.98 395.93   Q 399.46 401.37 404.15 405.81   L 407.51 416.29   L 405.13 445.55   L 385.87 417.49   L 379.88 399.97   L 381.54 388.93   Z"
     id="path93"
     style="stroke:none" />
  <path
     fill="#012949"
     d="   M 522.00 496.26   L 522.00 544.09   Q 512.51 530.95 503.01 517.98   Q 493.95 505.62 489.50 500.75   Q 480.02 490.39 470.71 479.86   C 464.66 473.03 458.99 465.75 453.29 458.55   Q 447.49 451.23 440.22 445.48   L 438.67 438.50   C 444.20 431.99 446.69 426.11 445.77 417.81   Q 445.02 411.08 443.76 405.69   L 446.04 399.53   C 452.31 402.44 456.78 406.90 460.55 412.52   Q 470.77 427.78 481.06 443.00   Q 481.94 444.31 492.48 458.92   Q 498.12 466.74 522.00 496.26   Z"
     id="path94"
     style="stroke:none" />
  <path
     fill="#934592"
     d="   M 331.70 417.48   L 335.28 441.52   Q 333.53 447.99 331.08 454.18   Q 329.35 458.52 327.74 459.71   Q 324.80 461.87 321.92 464.07   Q 320.10 465.46 318.46 467.03   Q 316.98 454.69 317.75 442.26   Q 320.36 431.53 323.93 421.10   Q 324.80 418.58 326.40 416.20   A 2.29 2.28 -63.6 0 1 329.03 415.31   Q 330.39 415.77 331.70 417.48   Z"
     id="path95"
     style="stroke:none" />
  <path
     fill="#e165ca"
     d="   M 296.69 453.77   Q 294.88 457.43 293.72 461.29   Q 293.12 463.29 291.94 466.55   Q 290.98 469.18 290.49 471.96   Q 290.22 473.50 288.54 477.61   Q 287.31 480.63 286.52 483.23   Q 284.52 489.79 282.39 496.30   Q 281.45 499.19 280.07 505.12   Q 279.03 509.61 277.41 513.88   Q 271.61 530.52 269.72 539.19   Q 267.73 548.32 266.01 554.01   C 264.38 559.44 263.33 563.69 262.17 567.87   Q 261.28 571.11 259.94 578.41   Q 258.73 585.06 256.59 591.62   Q 254.81 597.06 253.11 612.77   Q 251.78 617.34 250.66 621.93   Q 249.89 625.05 248.65 626.76   Q 247.07 628.93 244.88 630.54   C 246.26 622.32 248.61 613.05 249.97 606.16   Q 251.02 600.83 252.09 595.50   Q 253.02 590.89 254.61 584.94   Q 257.87 572.81 260.23 560.48   Q 260.94 557.02 262.22 553.80   Q 263.66 550.15 263.93 548.18   Q 264.46 544.33 265.56 541.35   C 267.69 535.57 268.87 528.95 270.57 524.06   Q 272.07 519.78 273.17 514.55   Q 273.59 512.53 275.03 508.22   Q 275.98 505.38 276.98 501.94   Q 280.46 490.04 281.41 487.65   Q 282.53 484.84 283.15 482.60   Q 284.23 478.71 284.67 477.53   Q 286.93 471.46 288.95 465.31   Q 291.57 457.32 293.08 453.05   Q 295.99 444.86 298.81 436.62   Q 300.12 433.93 300.51 432.73   Q 305.17 418.33 311.52 404.50   Q 312.41 408.23 310.78 412.94   Q 305.21 429.03 303.16 434.13   Q 300.98 439.54 296.69 453.77   Z"
     id="path96"
     style="stroke:none" />
  <path
     fill="#312f49"
     d="   M 234.37 408.29   C 234.38 411.92 234.29 417.21 236.09 420.39   A 2.28 2.28 0.0 0 0 238.48 421.51   Q 240.91 421.08 243.20 419.22   L 244.50 427.03   Q 240.61 444.25 239.63 462.03   L 223.40 489.62   Q 219.57 482.82 217.89 477.14   C 215.49 469.03 215.94 460.23 217.04 451.65   L 234.37 408.29   Z"
     id="path97"
     style="stroke:none" />
  <path
     fill="#2c4057"
     d="   M 414.68 431.97   Q 414.93 446.31 412.95 460.54   L 405.97 447.47   L 405.13 445.55   L 407.51 416.29   Q 411.79 423.80 414.68 431.97   Z"
     id="path98"
     style="stroke:none" />
  <path
     fill="#384569"
     d="   M 405.13 445.55   L 405.97 447.47   Q 404.87 464.46 402.68 479.40   Q 401.92 484.58 400.33 490.99   L 392.95 475.13   L 385.71 450.46   Q 384.76 444.94 384.04 439.21   Q 382.64 428.07 385.87 417.49   L 405.13 445.55   Z"
     id="path99"
     style="stroke:none" />
  <path
     fill="#013054"
     d="   M 199.65 426.04   L 198.69 436.83   L 188.27 472.14   Q 175.23 495.38 160.63 513.57   Q 149.44 527.50 129.85 549.24   C 115.43 565.23 98.74 580.01 82.36 593.07   C 65.29 606.69 47.01 615.60 24.94 614.99   Q 12.44 614.64 0.00 613.20   L 0.00 569.21   Q 5.03 572.06 10.14 574.63   Q 30.33 584.76 51.49 579.02   Q 64.53 575.48 77.54 567.16   Q 95.08 555.96 110.71 540.45   Q 124.99 526.29 134.52 516.01   Q 158.65 492.66 177.92 465.15   Q 190.78 446.80 199.65 426.04   Z"
     id="path100"
     style="stroke:none" />
  <path
     fill="#153a5d"
     d="   M 421.04 427.76   L 428.03 436.06   Q 427.71 450.58 431.89 464.58   L 431.40 497.19   Q 428.01 496.22 425.16 497.97   L 419.73 492.79   Q 413.54 482.95 413.16 470.87   Q 412.93 463.45 412.95 460.54   Q 414.93 446.31 414.68 431.97   Q 418.22 430.44 421.04 427.76   Z"
     id="path101"
     style="stroke:none" />
  <path
     fill="#4c4d75"
     d="   M 385.71 450.46   L 392.95 475.13   L 382.07 493.04   C 379.02 481.91 374.65 472.25 366.98 463.85   L 360.04 440.48   L 366.56 427.77   C 371.28 437.16 376.50 445.19 385.71 450.46   Z"
     id="path102"
     style="stroke:none" />
  <path
     fill="#665184"
     d="   M 360.04 440.48   L 366.98 463.85   C 361.57 472.70 358.71 480.10 358.70 489.65   Q 358.69 493.12 358.79 496.38   C 357.18 502.24 354.96 506.91 350.36 510.69   L 344.28 473.79   Q 344.61 457.98 343.45 442.21   L 348.63 430.14   Q 353.67 436.19 360.04 440.48   Z"
     id="path103"
     style="stroke:none" />
  <path
     fill="#1b324f"
     d="   M 438.67 438.50   L 440.22 445.48   L 439.70 459.97   Q 434.88 460.64 431.89 464.58   Q 427.71 450.58 428.03 436.06   Q 433.58 435.54 438.67 438.50   Z"
     id="path104"
     style="stroke:none" />
  <path
     fill="#013054"
     d="   M 522.00 544.09   L 522.00 564.34   Q 511.20 550.37 500.81 536.24   Q 492.57 525.03 487.64 519.94   C 478.96 510.97 469.04 501.40 461.84 492.65   Q 449.28 477.40 439.70 459.97   L 440.22 445.48   Q 447.49 451.23 453.29 458.55   C 458.99 465.75 464.66 473.03 470.71 479.86   Q 480.02 490.39 489.50 500.75   Q 493.95 505.62 503.01 517.98   Q 512.51 530.95 522.00 544.09   Z"
     id="path105"
     style="stroke:none" />
  <path
     fill="#8e5c97"
     d="   M 338.78 461.29   L 333.37 477.73   L 329.71 506.52   Q 325.67 522.70 323.27 539.22   L 317.95 550.97   L 314.50 531.24   Q 315.21 521.35 314.03 511.35   L 315.87 486.31   L 318.46 467.03   Q 320.10 465.46 321.92 464.07   Q 324.80 461.87 327.74 459.71   Q 329.35 458.52 331.08 454.18   Q 333.53 447.99 335.28 441.52   Q 338.14 451.21 338.78 461.29   Z"
     id="path106"
     style="stroke:none" />
  <path
     fill="#224a71"
     d="   M 412.95 460.54   Q 412.93 463.45 413.16 470.87   Q 413.54 482.95 419.73 492.79   Q 416.81 503.77 415.09 513.15   Q 413.00 524.45 416.62 535.62   Q 419.17 543.48 422.03 551.06   C 419.70 555.44 415.75 560.62 410.93 556.83   Q 407.46 554.11 404.10 551.14   Q 399.11 546.74 394.02 551.06   Q 390.47 541.01 390.13 530.50   Q 397.15 511.29 400.33 490.99   Q 401.92 484.58 402.68 479.40   Q 404.87 464.46 405.97 447.47   L 412.95 460.54   Z"
     id="path107"
     style="stroke:none" />
  <path
     fill="#272c43"
     d="   M 217.04 451.65   C 215.94 460.23 215.49 469.03 217.89 477.14   Q 219.57 482.82 223.40 489.62   L 214.83 504.50   Q 212.02 506.52 208.87 507.90   C 203.61 510.22 201.29 506.05 199.54 502.04   L 206.81 470.24   Q 210.75 460.20 217.04 451.65   Z"
     id="path108"
     style="stroke:none" />
  <path
     fill="#b95ca9"
     d="   M 296.69 453.77   Q 298.87 478.48 297.65 503.49   Q 294.60 516.26 287.28 550.43   Q 286.20 555.48 281.83 572.48   Q 269.51 603.85 257.89 635.49   Q 247.83 662.88 240.86 691.41   Q 239.81 695.72 239.47 700.15   C 239.00 706.24 239.01 714.12 238.16 719.78   Q 237.27 725.75 235.92 730.42   A 0.29 0.28 -52.2 0 1 235.40 730.49   Q 234.97 729.77 234.86 728.73   Q 234.58 725.98 234.47 723.21   L 234.54 703.47   Q 234.54 702.84 234.27 703.40   C 227.46 717.35 220.07 730.98 207.69 741.28   Q 196.07 750.96 186.92 760.33   Q 186.56 760.70 186.49 761.20   Q 185.31 769.92 183.78 774.28   Q 183.10 776.19 181.01 775.96   L 181.28 770.07   L 184.55 752.23   Q 185.68 753.15 186.87 752.91   Q 187.36 752.81 187.47 752.31   L 190.60 737.26   Q 206.49 716.82 217.45 693.25   Q 229.18 668.03 241.78 643.23   Q 243.38 640.08 243.94 637.06   Q 244.54 633.81 244.88 630.54   Q 247.07 628.93 248.65 626.76   Q 249.89 625.05 250.66 621.93   Q 251.78 617.34 253.11 612.77   Q 265.58 584.62 274.60 555.13   Q 276.96 547.43 279.35 535.17   Q 281.64 523.42 277.41 513.88   Q 279.03 509.61 280.07 505.12   Q 281.45 499.19 282.39 496.30   Q 284.52 489.79 286.52 483.23   Q 287.31 480.63 288.54 477.61   Q 290.22 473.50 290.49 471.96   Q 290.98 469.18 291.94 466.55   Q 293.12 463.29 293.72 461.29   Q 294.88 457.43 296.69 453.77   Z"
     id="path109"
     style="stroke:none" />
  <path
     fill="#01385e"
     d="   M 439.70 459.97   Q 449.28 477.40 461.84 492.65   C 469.04 501.40 478.96 510.97 487.64 519.94   Q 492.57 525.03 500.81 536.24   Q 511.20 550.37 522.00 564.34   L 522.00 604.05   Q 506.23 583.43 489.52 563.64   Q 480.86 553.38 476.17 548.83   Q 460.74 533.88 453.62 526.11   Q 442.67 514.17 431.40 497.19   L 431.89 464.58   Q 434.88 460.64 439.70 459.97   Z"
     id="path110"
     style="stroke:none" />
  <path
     fill="#715c92"
     d="   M 344.28 473.79   L 350.36 510.69   L 348.02 535.78   L 338.92 515.40   Q 338.22 496.28 333.37 477.73   L 338.78 461.29   L 344.28 473.79   Z"
     id="path111"
     style="stroke:none" />
  <path
     fill="#575c88"
     d="   M 382.07 493.04   L 381.59 511.77   C 376.95 511.11 375.13 515.40 373.99 519.02   Q 371.90 525.66 370.48 532.57   Q 366.25 527.32 365.06 520.46   Q 362.93 508.23 358.79 496.38   Q 358.69 493.12 358.70 489.65   C 358.71 480.10 361.57 472.70 366.98 463.85   C 374.65 472.25 379.02 481.91 382.07 493.04   Z"
     id="path112"
     style="stroke:none" />
  <path
     fill="#122f44"
     d="   M 206.81 470.24   L 199.54 502.04   L 185.79 524.72   Q 183.75 524.69 181.69 524.42   Q 177.10 523.81 176.26 519.11   Q 175.87 516.97 175.60 514.67   L 183.87 486.22   L 206.81 470.24   Z"
     id="path113"
     style="stroke:none" />
  <path
     fill="#012949"
     d="   M 188.27 472.14   L 183.87 486.22   L 175.60 514.67   Q 164.44 532.10 150.90 547.65   Q 137.04 563.57 122.47 578.84   Q 111.40 590.45 108.60 593.23   C 93.05 608.73 75.47 622.70 56.50 632.92   Q 47.35 637.85 38.17 640.84   C 25.97 644.83 12.34 646.87 0.00 648.24   L 0.00 613.20   Q 12.44 614.64 24.94 614.99   C 47.01 615.60 65.29 606.69 82.36 593.07   C 98.74 580.01 115.43 565.23 129.85 549.24   Q 149.44 527.50 160.63 513.57   Q 175.23 495.38 188.27 472.14   Z"
     id="path114"
     style="stroke:none" />
  <path
     fill="#36537b"
     d="   M 392.95 475.13   L 400.33 490.99   Q 397.15 511.29 390.13 530.50   Q 387.57 520.18 381.59 511.77   L 382.07 493.04   L 392.95 475.13   Z"
     id="path115"
     style="stroke:none" />
  <path
     fill="#7d5a8f"
     d="   M 338.92 515.40   L 329.71 506.52   L 333.37 477.73   Q 338.22 496.28 338.92 515.40   Z"
     id="path116"
     style="stroke:none" />
  <path
     fill="#a35fa2"
     d="   M 315.87 486.31   L 314.03 511.35   Q 311.25 520.47 307.60 529.22   Q 305.11 535.16 301.52 539.32   Q 296.82 544.75 294.12 549.64   Q 287.86 560.99 281.83 572.48   Q 286.20 555.48 287.28 550.43   Q 294.60 516.26 297.65 503.49   Q 305.23 492.89 315.87 486.31   Z"
     id="path117"
     style="stroke:none" />
  <path
     fill="#004877"
     d="   M 419.73 492.79   L 425.16 497.97   C 427.38 510.31 430.81 521.40 438.04 531.60   Q 447.89 545.51 461.16 556.32   C 465.49 559.85 469.55 562.44 474.66 565.67   C 479.04 568.45 482.64 571.80 485.39 575.84   C 489.57 581.98 493.54 588.16 498.15 594.07   C 504.17 601.80 510.34 609.35 515.91 617.55   Q 518.95 622.03 522.00 626.57   L 522.00 658.87   Q 503.34 635.59 483.75 613.30   Q 477.06 605.69 473.89 601.86   Q 473.61 601.52 473.72 601.09   L 477.68 586.19   Q 477.80 585.72 477.54 585.32   Q 477.37 585.06 477.13 584.94   Q 476.61 584.67 476.32 585.18   L 470.92 594.53   Q 470.73 594.86 470.40 594.67   Q 453.63 585.05 439.99 571.02   Q 430.67 561.43 422.03 551.06   Q 419.17 543.48 416.62 535.62   Q 413.00 524.45 415.09 513.15   Q 416.81 503.77 419.73 492.79   Z"
     id="path118"
     style="stroke:none" />
  <path
     fill="#596998"
     d="   M 370.48 532.57   Q 371.62 546.61 370.55 560.67   Q 366.91 576.80 364.79 593.13   L 360.47 610.00   Q 359.05 594.18 354.84 578.91   Q 351.47 576.49 347.63 579.55   L 345.11 569.45   Q 348.02 552.77 348.02 535.78   L 350.36 510.69   C 354.96 506.91 357.18 502.24 358.79 496.38   Q 362.93 508.23 365.06 520.46   Q 366.25 527.32 370.48 532.57   Z"
     id="path119"
     style="stroke:none" />
  <path
     fill="#01426e"
     d="   M 431.40 497.19   Q 442.67 514.17 453.62 526.11   Q 460.74 533.88 476.17 548.83   Q 480.86 553.38 489.52 563.64   Q 506.23 583.43 522.00 604.05   L 522.00 626.57   Q 518.95 622.03 515.91 617.55   C 510.34 609.35 504.17 601.80 498.15 594.07   C 493.54 588.16 489.57 581.98 485.39 575.84   C 482.64 571.80 479.04 568.45 474.66 565.67   C 469.55 562.44 465.49 559.85 461.16 556.32   Q 447.89 545.51 438.04 531.60   C 430.81 521.40 427.38 510.31 425.16 497.97   Q 428.01 496.22 431.40 497.19   Z"
     id="path120"
     style="stroke:none" />
  <path
     fill="#41618f"
     d="   M 381.59 511.77   Q 387.57 520.18 390.13 530.50   Q 390.47 541.01 394.02 551.06   L 395.71 567.64   L 392.34 577.35   Q 386.76 573.90 382.24 578.55   Q 377.19 576.91 374.88 572.44   Q 372.24 567.34 370.55 560.67   Q 371.62 546.61 370.48 532.57   Q 371.90 525.66 373.99 519.02   C 375.13 515.40 376.95 511.11 381.59 511.77   Z"
     id="path121"
     style="stroke:none" />
  <path
     fill="#1e253d"
     d="   M 214.83 504.50   Q 201.75 528.65 190.41 553.52   Q 184.34 553.06 180.47 548.77   Q 184.66 537.07 185.79 524.72   L 199.54 502.04   C 201.29 506.05 203.61 510.22 208.87 507.90   Q 212.02 506.52 214.83 504.50   Z"
     id="path122"
     style="stroke:none" />
  <path
     fill="#77669e"
     d="   M 329.71 506.52   L 338.92 515.40   L 348.02 535.78   Q 348.02 552.77 345.11 569.45   L 342.52 560.50   Q 340.02 555.26 336.05 550.98   Q 330.62 547.95 324.20 551.06   Q 324.57 544.95 323.27 539.22   Q 325.67 522.70 329.71 506.52   Z"
     id="path123"
     style="stroke:none" />
  <path
     fill="#9f66ab"
     d="   M 314.50 531.24   Q 307.42 555.93 300.80 580.69   Q 297.77 592.05 295.35 599.93   Q 285.11 633.39 273.61 666.44   C 266.66 686.42 257.88 705.58 250.44 725.36   Q 242.54 746.35 234.48 767.33   L 234.47 723.21   Q 234.58 725.98 234.86 728.73   Q 234.97 729.77 235.40 730.49   A 0.29 0.28 -52.2 0 0 235.92 730.42   Q 237.27 725.75 238.16 719.78   C 239.01 714.12 239.00 706.24 239.47 700.15   Q 239.81 695.72 240.86 691.41   Q 247.83 662.88 257.89 635.49   Q 269.51 603.85 281.83 572.48   Q 287.86 560.99 294.12 549.64   Q 296.82 544.75 301.52 539.32   Q 305.11 535.16 307.60 529.22   Q 311.25 520.47 314.03 511.35   Q 315.21 521.35 314.50 531.24   Z"
     id="path124"
     style="stroke:none" />
  <path
     fill="#cd58b2"
     d="   M 253.11 612.77   Q 254.81 597.06 256.59 591.62   Q 258.73 585.06 259.94 578.41   Q 261.28 571.11 262.17 567.87   C 263.33 563.69 264.38 559.44 266.01 554.01   Q 267.73 548.32 269.72 539.19   Q 271.61 530.52 277.41 513.88   Q 281.64 523.42 279.35 535.17   Q 276.96 547.43 274.60 555.13   Q 265.58 584.62 253.11 612.77   Z"
     id="path125"
     style="stroke:none" />
  <path
     fill="#011e36"
     d="   M 185.79 524.72   Q 184.66 537.07 180.47 548.77   C 170.65 562.90 164.23 578.68 157.71 594.51   Q 137.57 604.60 120.76 619.75   C 107.00 632.16 91.52 647.12 75.58 659.22   Q 51.74 677.33 22.89 685.43   Q 11.50 688.63 0.00 691.50   L 0.00 648.24   C 12.34 646.87 25.97 644.83 38.17 640.84   Q 47.35 637.85 56.50 632.92   C 75.47 622.70 93.05 608.73 108.60 593.23   Q 111.40 590.45 122.47 578.84   Q 137.04 563.57 150.90 547.65   Q 164.44 532.10 175.60 514.67   Q 175.87 516.97 176.26 519.11   Q 177.10 523.81 181.69 524.42   Q 183.75 524.69 185.79 524.72   Z"
     id="path126"
     style="stroke:none" />
  <path
     fill="#916aa8"
     d="   M 317.95 550.97   Q 309.77 575.23 307.23 583.73   Q 294.80 625.36 291.20 636.01   Q 283.62 658.38 275.76 680.65   Q 273.77 686.31 266.35 711.29   Q 262.50 724.26 260.25 730.33   Q 255.02 744.46 248.26 757.32   Q 241.23 770.68 234.25 784.02   L 234.13 776.81   L 234.48 767.33   Q 242.54 746.35 250.44 725.36   C 257.88 705.58 266.66 686.42 273.61 666.44   Q 285.11 633.39 295.35 599.93   Q 297.77 592.05 300.80 580.69   Q 307.42 555.93 314.50 531.24   L 317.95 550.97   Z"
     id="path127"
     style="stroke:none" />
  <path
     fill="#896da9"
     d="   M 324.20 551.06   Q 317.55 586.12 309.75 612.18   Q 298.74 649.00 292.43 667.27   Q 286.40 684.73 281.94 695.07   Q 271.86 718.47 268.93 726.20   Q 261.33 746.30 255.10 772.82   Q 245.54 786.95 234.97 800.05   L 234.25 784.02   Q 241.23 770.68 248.26 757.32   Q 255.02 744.46 260.25 730.33   Q 262.50 724.26 266.35 711.29   Q 273.77 686.31 275.76 680.65   Q 283.62 658.38 291.20 636.01   Q 294.80 625.36 307.23 583.73   Q 309.77 575.23 317.95 550.97   L 323.27 539.22   Q 324.57 544.95 324.20 551.06   Z"
     id="path128"
     style="stroke:none" />
  <path
     fill="#015489"
     d="   M 422.03 551.06   Q 430.67 561.43 439.99 571.02   Q 453.63 585.05 470.40 594.67   Q 470.73 594.86 470.92 594.53   L 476.32 585.18   Q 476.61 584.67 477.13 584.94   Q 477.37 585.06 477.54 585.32   Q 477.80 585.72 477.68 586.19   L 473.72 601.09   Q 473.61 601.52 473.89 601.86   Q 477.06 605.69 483.75 613.30   Q 503.34 635.59 522.00 658.87   L 522.00 713.35   Q 508.20 683.01 486.95 657.59   Q 475.35 643.72 463.60 630.00   Q 466.32 623.74 468.30 617.37   Q 469.21 614.43 468.51 611.36   A 1.52 1.51 -15.9 0 0 466.53 610.26   Q 465.58 610.59 464.77 611.64   Q 448.46 605.24 435.50 593.59   Q 432.45 590.85 426.62 585.80   C 424.23 583.74 419.50 580.50 416.35 582.68   Q 413.67 584.54 411.56 588.77   L 395.71 567.64   L 394.02 551.06   Q 399.11 546.74 404.10 551.14   Q 407.46 554.11 410.93 556.83   C 415.75 560.62 419.70 555.44 422.03 551.06   Z"
     id="path129"
     style="stroke:none" />
  <path
     fill="#7e70a8"
     d="   M 336.05 550.98   Q 327.70 579.63 320.09 608.41   Q 310.83 643.36 299.45 677.67   Q 296.67 686.03 292.79 696.53   Q 284.94 717.71 277.06 738.88   Q 270.65 756.11 256.89 781.54   Q 254.88 777.51 255.10 772.82   Q 261.33 746.30 268.93 726.20   Q 271.86 718.47 281.94 695.07   Q 286.40 684.73 292.43 667.27   Q 298.74 649.00 309.75 612.18   Q 317.55 586.12 324.20 551.06   Q 330.62 547.95 336.05 550.98   Z"
     id="path130"
     style="stroke:none" />
  <path
     fill="#101b2c"
     d="   M 180.47 548.77   Q 184.34 553.06 190.41 553.52   L 163.67 610.29   L 153.05 612.24   Q 156.14 603.50 157.71 594.51   C 164.23 578.68 170.65 562.90 180.47 548.77   Z"
     id="path131"
     style="stroke:none" />
  <path
     fill="#7472a7"
     d="   M 336.05 550.98   Q 340.02 555.26 342.52 560.50   Q 337.98 580.71 334.47 593.16   Q 320.31 643.41 301.54 700.29   Q 298.51 709.47 294.97 719.18   Q 286.50 742.38 277.97 765.37   Q 267.94 774.11 256.89 781.54   Q 270.65 756.11 277.06 738.88   Q 284.94 717.71 292.79 696.53   Q 296.67 686.03 299.45 677.67   Q 310.83 643.36 320.09 608.41   Q 327.70 579.63 336.05 550.98   Z"
     id="path132"
     style="stroke:none" />
  <path
     fill="#cd58b2"
     d="   M 260.23 560.48   Q 257.87 572.81 254.61 584.94   Q 253.02 590.89 252.09 595.50   Q 251.02 600.83 249.97 606.16   C 248.61 613.05 246.26 622.32 244.88 630.54   Q 244.54 633.81 243.94 637.06   Q 243.38 640.08 241.78 643.23   Q 229.18 668.03 217.45 693.25   Q 206.49 716.82 190.60 737.26   L 192.16 723.69   L 202.23 672.30   Q 208.82 656.30 213.68 647.69   C 221.06 634.63 227.42 624.05 233.24 612.10   C 243.94 590.12 248.90 579.28 260.23 560.48   Z"
     id="path133"
     style="stroke:none" />
  <path
     fill="#6a75a9"
     d="   M 345.11 569.45   L 347.63 579.55   Q 344.89 594.58 343.82 598.45   Q 334.30 632.91 331.67 641.97   Q 321.07 678.39 307.86 709.04   Q 293.54 742.24 289.18 752.80   Q 286.33 759.70 280.28 767.79   Q 279.43 766.49 277.97 765.37   Q 286.50 742.38 294.97 719.18   Q 298.51 709.47 301.54 700.29   Q 320.31 643.41 334.47 593.16   Q 337.98 580.71 342.52 560.50   L 345.11 569.45   Z"
     id="path134"
     style="stroke:none" />
  <path
     fill="#396c9f"
     d="   M 370.55 560.67   Q 372.24 567.34 374.88 572.44   Q 377.19 576.91 382.24 578.55   Q 382.08 589.79 381.24 594.95   Q 380.55 599.18 379.72 601.50   C 378.12 605.99 374.96 610.32 373.05 614.69   Q 368.37 625.37 365.22 636.75   L 364.79 593.13   Q 366.91 576.80 370.55 560.67   Z"
     id="path135"
     style="stroke:none" />
  <path
     fill="#ed54c0"
     d="   M 214.67 606.18   L 207.61 632.34   Q 207.52 630.74 207.36 630.57   Q 205.98 629.21 205.02 630.93   Q 204.23 632.36 198.69 641.94   C 194.58 649.05 189.95 655.06 184.21 662.71   C 181.72 666.04 179.41 669.97 176.98 673.06   A 1.07 1.07 0.0 0 1 175.25 672.99   C 173.95 671.03 172.72 670.29 170.45 669.56   Q 166.24 668.21 165.62 667.67   Q 161.50 664.07 160.41 658.58   Q 158.13 647.16 159.87 635.59   Q 160.98 628.25 162.57 620.96   L 165.14 610.82   Q 165.18 610.68 165.30 610.75   L 165.66 610.96   Q 165.84 611.06 165.82 611.27   L 163.52 631.06   C 165.84 636.63 169.22 642.69 176.35 638.24   C 181.86 634.80 186.90 627.80 190.25 622.26   Q 196.29 612.26 207.57 592.69   Q 216.42 577.33 226.83 563.70   Q 227.57 562.73 227.22 563.90   L 214.67 606.18   Z"
     id="path136"
     style="stroke:none" />
  <path
     fill="#00649d"
     d="   M 411.56 588.77   C 418.50 602.27 426.35 613.54 438.83 622.27   Q 446.28 627.47 457.70 632.13   Q 458.14 632.31 458.33 631.87   Q 462.35 622.16 464.77 611.64   Q 465.58 610.59 466.53 610.26   A 1.52 1.51 -15.9 0 1 468.51 611.36   Q 469.21 614.43 468.30 617.37   Q 466.32 623.74 463.60 630.00   L 460.88 636.03   Q 460.10 635.22 459.69 635.21   A 2.13 2.11 13.4 0 0 457.71 636.42   Q 454.50 643.19 452.57 649.83   Q 452.10 651.46 449.13 656.67   Q 448.88 657.12 448.42 656.91   C 436.27 651.58 426.69 646.26 417.49 637.31   Q 416.06 635.92 406.55 625.51   Q 402.10 620.63 396.03 620.96   Q 390.02 621.68 385.19 625.93   Q 390.88 601.78 392.34 577.35   L 395.71 567.64   L 411.56 588.77   Z"
     id="path137"
     style="stroke:none" />
  <path
     fill="#3075a9"
     d="   M 392.34 577.35   Q 390.88 601.78 385.19 625.93   Q 374.38 668.88 362.92 711.80   C 357.46 732.25 349.65 756.48 345.15 771.65   Q 335.37 804.54 325.29 843.00   L 316.70 843.00   Q 320.82 827.29 321.59 821.05   Q 322.31 815.24 322.25 813.49   Q 322.11 808.92 320.58 799.46   Q 329.89 765.56 340.36 732.03   C 345.97 714.05 351.97 693.15 355.96 678.32   Q 360.89 659.99 365.22 636.75   Q 368.37 625.37 373.05 614.69   C 374.96 610.32 378.12 605.99 379.72 601.50   Q 380.55 599.18 381.24 594.95   Q 382.08 589.79 382.24 578.55   Q 386.76 573.90 392.34 577.35   Z"
     id="path138"
     style="stroke:none" />
  <path
     fill="#015d9c"
     d="   M 464.77 611.64   Q 462.35 622.16 458.33 631.87   Q 458.14 632.31 457.70 632.13   Q 446.28 627.47 438.83 622.27   C 426.35 613.54 418.50 602.27 411.56 588.77   Q 413.67 584.54 416.35 582.68   C 419.50 580.50 424.23 583.74 426.62 585.80   Q 432.45 590.85 435.50 593.59   Q 448.46 605.24 464.77 611.64   Z"
     id="path139"
     style="stroke:none" />
  <path
     fill="#6075a8"
     d="   M 354.84 578.91   Q 353.02 602.01 347.29 624.24   Q 338.68 657.63 327.76 688.07   C 320.51 708.24 310.17 733.54 305.76 746.68   Q 301.37 759.75 297.01 772.65   Q 288.89 781.84 280.81 790.88   Q 276.27 795.97 267.86 802.19   L 280.28 767.79   Q 286.33 759.70 289.18 752.80   Q 293.54 742.24 307.86 709.04   Q 321.07 678.39 331.67 641.97   Q 334.30 632.91 343.82 598.45   Q 344.89 594.58 347.63 579.55   Q 351.47 576.49 354.84 578.91   Z"
     id="path140"
     style="stroke:none" />
  <path
     fill="#5575a8"
     d="   M 360.47 610.00   Q 350.82 659.46 334.82 707.41   Q 321.91 746.12 308.94 784.76   Q 307.58 787.29 305.18 788.41   C 303.04 786.48 300.18 784.79 298.91 782.34   Q 297.65 779.91 297.38 777.11   Q 297.17 774.98 297.01 772.65   Q 301.37 759.75 305.76 746.68   C 310.17 733.54 320.51 708.24 327.76 688.07   Q 338.68 657.63 347.29 624.24   Q 353.02 602.01 354.84 578.91   Q 359.05 594.18 360.47 610.00   Z"
     id="path141"
     style="stroke:none" />
  <path
     fill="#4476a9"
     d="   M 364.79 593.13   L 365.22 636.75   Q 360.89 659.99 355.96 678.32   C 351.97 693.15 345.97 714.05 340.36 732.03   Q 329.89 765.56 320.58 799.46   Q 317.82 805.42 314.44 811.11   Q 313.47 812.76 312.23 813.90   A 0.74 0.73 -40.6 0 1 311.16 813.82   Q 310.75 813.31 310.73 812.26   Q 310.57 805.97 310.76 799.68   Q 310.99 792.12 308.94 784.76   Q 321.91 746.12 334.82 707.41   Q 350.82 659.46 360.47 610.00   L 364.79 593.13   Z"
     id="path142"
     style="stroke:none" />
  <path
     fill="#011527"
     d="   M 157.71 594.51   Q 156.14 603.50 153.05 612.24   Q 134.08 629.89 126.27 638.36   Q 115.30 650.28 104.06 661.95   Q 85.73 681.00 63.88 695.88   Q 34.73 715.73 0.00 720.81   L 0.00 691.50   Q 11.50 688.63 22.89 685.43   Q 51.74 677.33 75.58 659.22   C 91.52 647.12 107.00 632.16 120.76 619.75   Q 137.57 604.60 157.71 594.51   Z"
     id="path143"
     style="stroke:none" />
  <path
     fill="#e165ca"
     d="   M 214.67 606.18   Q 215.66 607.36 217.00 606.95   Q 212.71 622.25 209.63 637.82   Q 208.31 644.48 205.72 655.01   Q 203.61 663.57 202.23 672.30   L 192.16 723.69   Q 191.12 725.58 189.31 726.53   Q 188.82 726.79 188.92 726.25   C 189.58 722.65 190.12 719.84 190.45 715.55   Q 190.89 709.73 192.85 704.26   C 194.38 695.70 195.36 686.01 197.18 678.51   Q 199.34 669.63 200.66 660.59   Q 201.56 654.49 203.82 646.39   Q 205.78 639.35 207.61 632.34   L 214.67 606.18   Z"
     id="path144"
     style="stroke:none" />
  <path
     fill="#010f1f"
     d="   M 163.67 610.29   L 161.40 614.92   L 157.40 623.17   L 150.14 638.21   L 148.07 642.51   Q 148.14 640.81 147.65 639.77   A 1.39 1.39 0.0 0 0 145.77 639.12   Q 142.56 640.75 139.60 643.33   C 128.29 653.21 117.73 663.10 106.32 675.05   Q 97.84 683.94 92.79 689.04   C 76.00 706.00 55.05 719.79 34.44 730.77   Q 18.41 739.30 0.00 743.18   L 0.00 720.81   Q 34.73 715.73 63.88 695.88   Q 85.73 681.00 104.06 661.95   Q 115.30 650.28 126.27 638.36   Q 134.08 629.89 153.05 612.24   L 163.67 610.29   Z"
     id="path145"
     style="stroke:none" />
  <path
     fill="#0069aa"
     d="   M 460.88 636.03   L 456.80 648.04   L 452.58 662.68   Q 452.42 663.23 452.77 663.69   Q 463.40 677.63 472.44 688.09   Q 487.94 706.04 496.23 726.09   C 510.02 759.45 507.13 798.70 491.28 831.13   Q 488.37 837.10 485.21 843.00   L 434.70 843.00   C 449.82 835.31 466.83 827.02 475.73 811.71   Q 483.98 797.51 483.67 780.44   Q 483.45 768.01 479.45 753.39   Q 473.56 731.90 461.28 716.05   Q 454.95 707.88 453.39 705.67   Q 446.81 696.30 443.42 684.13   C 445.16 679.62 447.76 674.43 447.41 669.53   A 0.37 0.36 -18.2 0 0 446.85 669.25   Q 446.16 669.68 445.86 670.45   Q 441.24 682.13 436.55 693.70   Q 428.77 693.29 425.10 692.41   C 408.74 688.51 399.73 677.22 395.78 661.07   C 392.47 647.55 393.06 634.59 396.03 620.96   Q 402.10 620.63 406.55 625.51   Q 416.06 635.92 417.49 637.31   C 426.69 646.26 436.27 651.58 448.42 656.91   Q 448.88 657.12 449.13 656.67   Q 452.10 651.46 452.57 649.83   Q 454.50 643.19 457.71 636.42   A 2.13 2.11 13.4 0 1 459.69 635.21   Q 460.10 635.22 460.88 636.03   Z"
     id="path146"
     style="stroke:none" />
  <path
     fill="#cd58b2"
     d="   M 163.56 615.97   Q 158.96 628.27 158.01 632.61   Q 153.72 652.16 155.46 673.04   Q 156.10 680.66 156.87 683.77   Q 157.35 685.72 159.42 689.92   C 160.53 692.18 163.76 697.39 164.24 701.07   C 164.88 705.91 165.00 710.77 166.27 711.89   A 2.10 2.09 -37.0 0 0 168.52 712.20   Q 180.34 706.65 192.85 704.26   Q 190.89 709.73 190.45 715.55   C 190.12 719.84 189.58 722.65 188.92 726.25   Q 188.82 726.79 189.31 726.53   Q 191.12 725.58 192.16 723.69   L 190.60 737.26   L 187.47 752.31   Q 187.36 752.81 186.87 752.91   Q 185.68 753.15 184.55 752.23   L 185.37 740.89   Q 185.41 740.39 185.01 740.08   Q 179.06 735.53 174.50 732.03   Q 169.23 727.97 166.45 724.44   Q 163.76 721.03 161.20 714.74   Q 150.66 688.79 152.07 662.68   Q 152.81 649.14 156.90 632.06   L 158.89 623.99   Q 160.71 620.52 162.17 616.77   Q 163.28 613.93 163.56 615.97   Z"
     id="path147"
     style="stroke:none" />
  <path
     fill="#b95ca9"
     d="   M 161.40 614.92   L 158.89 623.99   L 156.90 632.06   L 157.89 623.70   Q 157.76 623.42 157.40 623.17   L 161.40 614.92   Z"
     id="path148"
     style="stroke:none" />
  <path
     fill="#da50bb"
     d="   M 163.56 615.97   L 162.57 620.96   Q 160.98 628.25 159.87 635.59   Q 158.13 647.16 160.41 658.58   Q 161.50 664.07 165.62 667.67   Q 166.24 668.21 170.45 669.56   C 172.72 670.29 173.95 671.03 175.25 672.99   A 1.07 1.07 0.0 0 0 176.98 673.06   C 179.41 669.97 181.72 666.04 184.21 662.71   C 189.95 655.06 194.58 649.05 198.69 641.94   Q 204.23 632.36 205.02 630.93   Q 205.98 629.21 207.36 630.57   Q 207.52 630.74 207.61 632.34   Q 205.78 639.35 203.82 646.39   Q 201.56 654.49 200.66 660.59   Q 199.34 669.63 197.18 678.51   C 195.36 686.01 194.38 695.70 192.85 704.26   Q 180.34 706.65 168.52 712.20   A 2.10 2.09 -37.0 0 1 166.27 711.89   C 165.00 710.77 164.88 705.91 164.24 701.07   C 163.76 697.39 160.53 692.18 159.42 689.92   Q 157.35 685.72 156.87 683.77   Q 156.10 680.66 155.46 673.04   Q 153.72 652.16 158.01 632.61   Q 158.96 628.27 163.56 615.97   Z"
     id="path149"
     style="stroke:none" />
  <path
     fill="#0072af"
     d="   M 396.03 620.96   C 393.06 634.59 392.47 647.55 395.78 661.07   C 399.73 677.22 408.74 688.51 425.10 692.41   Q 428.77 693.29 436.55 693.70   Q 429.38 709.27 423.04 725.11   Q 421.98 727.76 420.68 730.20   C 418.19 734.91 416.27 738.46 414.44 742.74   Q 411.22 750.25 407.81 758.77   Q 406.23 762.72 400.35 772.53   C 396.22 779.41 393.74 784.68 389.82 792.79   C 387.66 797.24 383.07 802.97 380.40 807.10   Q 376.35 813.37 368.39 824.43   Q 366.55 827.00 362.91 830.36   Q 361.65 831.53 363.14 832.39   L 364.49 833.17   Q 366.51 834.34 367.85 832.44   Q 372.57 825.73 378.49 818.48   Q 379.73 816.95 382.68 811.31   Q 384.68 807.48 386.94 804.18   Q 390.02 799.65 390.98 798.21   C 393.87 793.85 395.26 790.76 398.50 784.38   Q 399.87 781.68 402.47 777.49   C 405.76 772.19 407.98 765.98 410.63 761.40   Q 413.02 757.27 415.09 752.41   Q 418.09 745.40 422.95 736.39   Q 424.76 733.02 428.83 722.18   Q 430.88 716.73 434.70 707.98   Q 439.75 696.40 443.42 684.13   Q 446.81 696.30 453.39 705.67   Q 454.95 707.88 461.28 716.05   Q 473.56 731.90 479.45 753.39   Q 483.45 768.01 483.67 780.44   Q 483.98 797.51 475.73 811.71   C 466.83 827.02 449.82 835.31 434.70 843.00   L 325.29 843.00   Q 335.37 804.54 345.15 771.65   C 349.65 756.48 357.46 732.25 362.92 711.80   Q 374.38 668.88 385.19 625.93   Q 390.02 621.68 396.03 620.96   Z"
     id="path150"
     style="stroke:none" />
  <path
     fill="#9a3d86"
     d="   M 157.40 623.17   Q 157.76 623.42 157.89 623.70   Q 155.31 632.47 152.13 641.00   Q 150.02 646.67 149.36 652.35   Q 148.80 657.07 147.56 667.97   C 145.58 685.30 147.15 703.01 152.22 719.39   C 154.00 725.15 155.10 730.04 156.55 735.63   C 158.25 742.23 159.08 746.33 163.96 749.72   Q 175.39 757.65 181.28 770.07   L 181.01 775.96   L 180.91 781.80   L 178.48 791.25   L 178.35 795.50   L 177.49 798.67   Q 169.81 785.98 161.87 773.40   Q 155.53 763.36 152.06 751.92   C 147.44 736.67 143.69 722.81 142.43 707.61   C 140.78 687.54 142.63 668.65 146.77 648.20   L 150.14 638.21   L 157.40 623.17   Z"
     id="path151"
     style="stroke:none" />
  <path
     fill="#af4ba4"
     d="   M 157.89 623.70   L 156.90 632.06   Q 152.81 649.14 152.07 662.68   Q 150.66 688.79 161.20 714.74   Q 163.76 721.03 166.45 724.44   Q 169.23 727.97 174.50 732.03   Q 179.06 735.53 185.01 740.08   Q 185.41 740.39 185.37 740.89   L 184.55 752.23   L 181.28 770.07   Q 175.39 757.65 163.96 749.72   C 159.08 746.33 158.25 742.23 156.55 735.63   C 155.10 730.04 154.00 725.15 152.22 719.39   C 147.15 703.01 145.58 685.30 147.56 667.97   Q 148.80 657.07 149.36 652.35   Q 150.02 646.67 152.13 641.00   Q 155.31 632.47 157.89 623.70   Z"
     id="path152"
     style="stroke:none" />
  <path
     fill="#010814"
     d="   M 148.07 642.51   L 141.11 658.42   L 139.49 662.41   L 135.59 671.13   Q 120.93 679.16 110.40 690.18   Q 98.54 702.61 86.51 714.88   Q 71.39 730.30 53.65 742.59   C 35.90 754.90 19.86 765.50 0.00 772.11   L 0.00 743.18   Q 18.41 739.30 34.44 730.77   C 55.05 719.79 76.00 706.00 92.79 689.04   Q 97.84 683.94 106.32 675.05   C 117.73 663.10 128.29 653.21 139.60 643.33   Q 142.56 640.75 145.77 639.12   A 1.39 1.39 0.0 0 1 147.65 639.77   Q 148.14 640.81 148.07 642.51   Z"
     id="path153"
     style="stroke:none" />
  <path
     fill="#015d9c"
     d="   M 463.60 630.00   Q 475.35 643.72 486.95 657.59   Q 508.20 683.01 522.00 713.35   L 522.00 842.38   Q 521.69 842.62 521.52 843.00   L 493.63 843.00   Q 500.57 832.47 505.65 821.12   C 515.88 798.29 518.41 773.95 513.20 749.62   Q 505.96 715.76 485.74 687.35   Q 478.68 677.43 469.09 666.14   Q 464.89 661.20 456.80 648.04   L 460.88 636.03   L 463.60 630.00   Z"
     id="path154"
     style="stroke:none" />
  <path
     fill="#6f2e62"
     d="   M 150.14 638.21   L 146.77 648.20   Q 142.00 659.97 140.02 673.52   C 136.50 697.53 137.12 721.71 143.60 744.68   Q 146.43 754.72 150.33 767.43   Q 152.82 775.54 157.21 782.46   Q 169.00 801.02 174.56 810.49   Q 182.93 822.75 195.86 829.75   Q 199.29 833.89 204.96 838.62   Q 206.78 840.14 207.63 843.00   L 191.07 843.00   Q 184.69 837.80 179.55 831.63   Q 175.50 826.76 172.10 820.38   C 167.20 811.14 161.86 800.88 155.79 790.27   Q 151.04 781.98 147.29 769.53   Q 143.10 755.59 140.07 741.91   Q 132.70 708.52 138.35 674.75   Q 139.71 666.63 141.11 658.42   L 148.07 642.51   L 150.14 638.21   Z"
     id="path155"
     style="stroke:none" />
  <path
     fill="#00649d"
     d="   M 456.80 648.04   Q 464.89 661.20 469.09 666.14   Q 478.68 677.43 485.74 687.35   Q 505.96 715.76 513.20 749.62   C 518.41 773.95 515.88 798.29 505.65 821.12   Q 500.57 832.47 493.63 843.00   L 485.21 843.00   Q 488.37 837.10 491.28 831.13   C 507.13 798.70 510.02 759.45 496.23 726.09   Q 487.94 706.04 472.44 688.09   Q 463.40 677.63 452.77 663.69   Q 452.42 663.23 452.58 662.68   L 456.80 648.04   Z"
     id="path156"
     style="stroke:none" />
  <path
     fill="#863174"
     d="   M 146.77 648.20   C 142.63 668.65 140.78 687.54 142.43 707.61   C 143.69 722.81 147.44 736.67 152.06 751.92   Q 155.53 763.36 161.87 773.40   Q 169.81 785.98 177.49 798.67   L 176.76 802.04   L 174.56 810.49   Q 169.00 801.02 157.21 782.46   Q 152.82 775.54 150.33 767.43   Q 146.43 754.72 143.60 744.68   C 137.12 721.71 136.50 697.53 140.02 673.52   Q 142.00 659.97 146.77 648.20   Z"
     id="path157"
     style="stroke:none" />
  <path
     fill="#69225c"
     d="   M 141.11 658.42   Q 139.71 666.63 138.35 674.75   Q 132.70 708.52 140.07 741.91   Q 143.10 755.59 147.29 769.53   Q 151.04 781.98 155.79 790.27   C 161.86 800.88 167.20 811.14 172.10 820.38   Q 175.50 826.76 179.55 831.63   Q 184.69 837.80 191.07 843.00   L 184.03 843.00   Q 173.59 834.25 168.88 824.61   Q 162.17 810.88 155.07 797.20   Q 150.09 787.59 148.32 782.62   Q 147.70 780.85 143.04 767.45   Q 130.55 731.45 133.82 693.96   Q 134.93 681.26 139.49 662.41   L 141.11 658.42   Z"
     id="path158"
     style="stroke:none" />
  <path
     fill="#571d4e"
     d="   M 139.49 662.41   Q 134.93 681.26 133.82 693.96   Q 130.55 731.45 143.04 767.45   Q 147.70 780.85 148.32 782.62   Q 150.09 787.59 155.07 797.20   Q 162.17 810.88 168.88 824.61   Q 173.59 834.25 184.03 843.00   L 167.38 843.00   L 164.60 842.74   Q 158.81 830.62 152.69 818.79   Q 146.10 806.06 143.83 800.87   Q 126.21 760.52 126.64 717.29   Q 126.78 703.47 129.91 684.72   L 135.59 671.13   L 139.49 662.41   Z"
     id="path159"
     style="stroke:none" />
  <path
     fill="#0586c9"
     d="   M 443.42 684.13   Q 439.75 696.40 434.70 707.98   Q 430.88 716.73 428.83 722.18   Q 424.76 733.02 422.95 736.39   Q 418.09 745.40 415.09 752.41   Q 413.02 757.27 410.63 761.40   C 407.98 765.98 405.76 772.19 402.47 777.49   Q 399.87 781.68 398.50 784.38   C 395.26 790.76 393.87 793.85 390.98 798.21   Q 390.02 799.65 386.94 804.18   Q 384.68 807.48 382.68 811.31   Q 379.73 816.95 378.49 818.48   Q 372.57 825.73 367.85 832.44   Q 366.51 834.34 364.49 833.17   L 363.14 832.39   Q 361.65 831.53 362.91 830.36   Q 366.55 827.00 368.39 824.43   Q 376.35 813.37 380.40 807.10   C 383.07 802.97 387.66 797.24 389.82 792.79   C 393.74 784.68 396.22 779.41 400.35 772.53   Q 406.23 762.72 407.81 758.77   Q 411.22 750.25 414.44 742.74   C 416.27 738.46 418.19 734.91 420.68 730.20   Q 421.98 727.76 423.04 725.11   Q 429.38 709.27 436.55 693.70   Q 441.24 682.13 445.86 670.45   Q 446.16 669.68 446.85 669.25   A 0.37 0.36 -18.2 0 1 447.41 669.53   C 447.76 674.43 445.16 679.62 443.42 684.13   Z"
     id="path160"
     style="stroke:none" />
  <path
     fill="#010309"
     d="   M 135.59 671.13   L 129.91 684.72   L 120.45 709.17   L 116.48 719.95   L 111.96 732.78   L 102.78 758.77   Q 101.45 762.86 100.01 766.92   Q 98.56 771.00 98.23 774.66   Q 97.84 779.08 97.84 782.66   Q 97.83 792.02 101.52 801.26   Q 110.26 823.18 123.18 843.00   L 110.63 843.00   Q 107.26 829.01 104.90 822.74   C 99.13 807.41 93.36 793.58 95.86 777.97   Q 96.01 777.05 98.89 760.85   C 100.09 754.10 99.29 745.93 90.08 747.54   Q 86.16 748.23 82.99 749.80   Q 75.13 753.70 68.03 759.33   Q 59.17 766.36 49.74 772.56   Q 30.86 784.98 8.19 784.06   Q 4.09 783.89 0.00 783.61   L 0.00 772.11   C 19.86 765.50 35.90 754.90 53.65 742.59   Q 71.39 730.30 86.51 714.88   Q 98.54 702.61 110.40 690.18   Q 120.93 679.16 135.59 671.13   Z"
     id="path161"
     style="stroke:none" />
  <path
     fill="#40163a"
     d="   M 129.91 684.72   Q 126.78 703.47 126.64 717.29   Q 126.21 760.52 143.83 800.87   Q 146.10 806.06 152.69 818.79   Q 158.81 830.62 164.60 842.74   L 153.33 842.69   Q 127.77 799.12 122.34 750.11   Q 120.34 732.01 120.45 709.17   L 129.91 684.72   Z"
     id="path162"
     style="stroke:none" />
  <path
     fill="#a35fa2"
     d="   M 234.47 723.21   L 234.48 767.33   L 234.13 776.81   Q 224.07 777.50 214.53 781.02   C 208.60 775.83 202.46 772.76 194.45 774.87   Q 188.36 776.47 180.91 781.80   L 181.01 775.96   Q 183.10 776.19 183.78 774.28   Q 185.31 769.92 186.49 761.20   Q 186.56 760.70 186.92 760.33   Q 196.07 750.96 207.69 741.28   C 220.07 730.98 227.46 717.35 234.27 703.40   Q 234.54 702.84 234.54 703.47   L 234.47 723.21   Z"
     id="path163"
     style="stroke:none" />
  <path
     fill="#2e0f2c"
     d="   M 120.45 709.17   Q 120.34 732.01 122.34 750.11   Q 127.77 799.12 153.33 842.69   L 147.03 842.63   Q 115.54 785.52 116.48 719.95   L 120.45 709.17   Z"
     id="path164"
     style="stroke:none" />
  <path
     fill="#200a21"
     d="   M 116.48 719.95   Q 115.54 785.52 147.03 842.63   L 141.04 842.41   Q 129.76 820.27 123.47 798.28   Q 114.59 767.26 111.96 732.78   L 116.48 719.95   Z"
     id="path165"
     style="stroke:none" />
  <path
     fill="#170719"
     d="   M 111.96 732.78   Q 114.59 767.26 123.47 798.28   Q 129.76 820.27 141.04 842.41   L 131.16 842.50   Q 130.65 842.51 130.47 842.03   C 119.22 813.50 109.68 787.79 102.78 758.77   L 111.96 732.78   Z"
     id="path166"
     style="stroke:none" />
  <path
     fill="#000000"
     d="   M 110.63 843.00   L 0.00 843.00   L 0.00 783.61   Q 4.09 783.89 8.19 784.06   Q 30.86 784.98 49.74 772.56   Q 59.17 766.36 68.03 759.33   Q 75.13 753.70 82.99 749.80   Q 86.16 748.23 90.08 747.54   C 99.29 745.93 100.09 754.10 98.89 760.85   Q 96.01 777.05 95.86 777.97   C 93.36 793.58 99.13 807.41 104.90 822.74   Q 107.26 829.01 110.63 843.00   Z"
     id="path167"
     style="stroke:none" />
  <path
     fill="#0f0411"
     d="   M 102.78 758.77   C 109.68 787.79 119.22 813.50 130.47 842.03   Q 130.65 842.51 131.16 842.50   L 141.04 842.41   L 147.03 842.63   L 153.33 842.69   L 164.60 842.74   L 167.38 843.00   L 123.18 843.00   Q 110.26 823.18 101.52 801.26   Q 97.83 792.02 97.84 782.66   Q 97.84 779.08 98.23 774.66   Q 98.56 771.00 100.01 766.92   Q 101.45 762.86 102.78 758.77   Z"
     id="path168"
     style="stroke:none" />
  <path
     fill="#77669e"
     d="   M 277.97 765.37   Q 279.43 766.49 280.28 767.79   L 267.86 802.19   Q 259.32 810.28 252.42 819.87   Q 246.16 825.16 238.47 827.47   L 235.39 807.04   L 234.97 800.05   Q 245.54 786.95 255.10 772.82   Q 254.88 777.51 256.89 781.54   Q 267.94 774.11 277.97 765.37   Z"
     id="path169"
     style="stroke:none" />
  <path
     fill="#9d5394"
     d="   M 214.53 781.02   L 208.21 793.31   Q 193.38 791.54 178.48 791.25   L 180.91 781.80   Q 188.36 776.47 194.45 774.87   C 202.46 772.76 208.60 775.83 214.53 781.02   Z"
     id="path170"
     style="stroke:none" />
  <path
     fill="#596998"
     d="   M 297.01 772.65   Q 297.17 774.98 297.38 777.11   Q 297.65 779.91 298.91 782.34   C 300.18 784.79 303.04 786.48 305.18 788.41   C 298.14 810.80 293.96 825.08 286.19 843.00   L 250.28 843.00   C 253.43 835.25 255.15 827.89 252.42 819.87   Q 259.32 810.28 267.86 802.19   Q 276.27 795.97 280.81 790.88   Q 288.89 781.84 297.01 772.65   Z"
     id="path171"
     style="stroke:none" />
  <path
     fill="#8e5c97"
     d="   M 234.13 776.81   L 234.25 784.02   L 234.97 800.05   L 235.39 807.04   L 217.93 806.79   L 210.53 803.52   L 208.21 793.31   L 214.53 781.02   Q 224.07 777.50 234.13 776.81   Z"
     id="path172"
     style="stroke:none" />
  <path
     fill="#396c9f"
     d="   M 320.58 799.46   Q 322.11 808.92 322.25 813.49   Q 322.31 815.24 321.59 821.05   Q 320.82 827.29 316.70 843.00   L 286.19 843.00   C 293.96 825.08 298.14 810.80 305.18 788.41   Q 307.58 787.29 308.94 784.76   Q 310.99 792.12 310.76 799.68   Q 310.57 805.97 310.73 812.26   Q 310.75 813.31 311.16 813.82   A 0.74 0.73 -40.6 0 0 312.23 813.90   Q 313.47 812.76 314.44 811.11   Q 317.82 805.42 320.58 799.46   Z"
     id="path173"
     style="stroke:none" />
  <path
     fill="#934592"
     d="   M 208.21 793.31   L 210.53 803.52   C 199.14 802.95 188.99 799.81 178.35 795.50   L 178.48 791.25   Q 193.38 791.54 208.21 793.31   Z"
     id="path174"
     style="stroke:none" />
  <path
     fill="#834d85"
     d="   M 210.53 803.52   L 217.93 806.79   Q 216.37 815.58 220.92 824.07   Q 212.18 825.37 203.72 823.01   L 176.76 802.04   L 177.49 798.67   L 178.35 795.50   C 188.99 799.81 199.14 802.95 210.53 803.52   Z"
     id="path175"
     style="stroke:none" />
  <path
     fill="#784177"
     d="   M 203.72 823.01   L 195.86 829.75   Q 182.93 822.75 174.56 810.49   L 176.76 802.04   L 203.72 823.01   Z"
     id="path176"
     style="stroke:none" />
  <path
     fill="#7d5a8f"
     d="   M 235.39 807.04   L 238.47 827.47   L 236.71 830.95   L 220.92 824.07   Q 216.37 815.58 217.93 806.79   L 235.39 807.04   Z"
     id="path177"
     style="stroke:none" />
  <path
     fill="#715c92"
     d="   M 252.42 819.87   C 255.15 827.89 253.43 835.25 250.28 843.00   L 242.55 843.00   L 236.71 830.95   L 238.47 827.47   Q 246.16 825.16 252.42 819.87   Z"
     id="path178"
     style="stroke:none" />
  <path
     fill="#665184"
     d="   M 203.72 823.01   Q 212.18 825.37 220.92 824.07   L 236.71 830.95   L 242.55 843.00   L 207.63 843.00   Q 206.78 840.14 204.96 838.62   Q 199.29 833.89 195.86 829.75   L 203.72 823.01   Z"
     id="path179"
     style="stroke:none" />
  <path
     fill="#000000"
     d="   M 522.00 842.38   L 522.00 843.00   L 521.52 843.00   Q 521.69 842.62 522.00 842.38   Z"
     id="path180"
     style="stroke:none" />
</svg>
